<?xml version="1.0" encoding="UTF-8"?>
<!DOCTYPE svg PUBLIC "-//W3C//DTD SVG 1.1//EN" "http://www.w3.org/Graphics/SVG/1.1/DTD/svg11.dtd">
<!-- Creator: CorelDRAW 2018 (64 Bit) -->
<svg xmlns="http://www.w3.org/2000/svg" xml:space="preserve" width="49.8768mm" height="9.1455mm" version="1.1" style="shape-rendering:geometricPrecision; text-rendering:geometricPrecision; image-rendering:optimizeQuality; fill-rule:evenodd; clip-rule:evenodd" viewBox="0 0 10466.13 1919.09" xmlns:xlink="http://www.w3.org/1999/xlink">
 <defs>
  <style type="text/css">
   <![CDATA[
    .fil0 {fill:#FF6600;fill-rule:nonzero;}
   ]]>
  </style>
 </defs>

 <g id="Capa_x0020_1">
  <metadata id="CorelCorpID_0Corel-Layer"/>
  <polygon class="fil0" fill="url(#grid1)" points="-0,1495.44 390.45,1495.44 390.45,888.29 937.08,888.29 937.08,1495.44 1327.55,1495.44 1327.55,0 937.08,0 937.08,562.27 390.45,562.27 390.45,0 -0,0 "/>
  <path id="1" class="fil0" d="M1561.82 898.05c0,402.16 253.8,626.69 622.78,626.69 251.83,0 454.87,-124.96 560.29,-312.37 -66.37,-41 -283.07,-165.94 -283.07,-165.94 -62.47,81.98 -140.57,165.94 -259.66,165.94 -136.65,0 -249.9,-68.32 -281.12,-210.85 27.32,0 843.37,0 843.37,0 1.95,-27.34 0,-42.95 0,-72.23 0,-427.55 -244.02,-655.98 -589.57,-655.98 -353.37,0 -613.03,261.61 -613.03,624.73zm609.1 -320.17c113.25,0 175.72,54.66 218.67,169.84 -41,0 -454.89,0 -454.89,0 44.91,-111.28 113.23,-169.84 236.22,-169.84z"/>
  <polygon id="2" class="fil0" points="2850.32,296.76 3332.53,1335.36 3063.11,1919.09 3447.71,1919.09 4144.67,296.76 3767.88,296.76 3516.05,915.61 3254.45,296.76 "/>
  <path id="3" class="fil0" d="M4665.93 1495.44c0,0 0,-458.77 0,-685.25 0,-115.18 97.62,-210.85 214.75,-210.85 160.09,0 187.43,93.71 187.43,193.28 0,82.01 0,702.82 0,702.82l374.82 0c0,-283.07 0,-540.78 0,-823.85 0,-226.46 -193.26,-398.28 -431.45,-398.28 -234.27,0 -349.45,179.62 -349.45,179.62l0 -452.94 -363.13 0 0 1495.44 367.03 0z"/>
  <path id="4" class="fil0" d="M5638.16 898.05c0,402.16 253.8,626.69 622.78,626.69 251.83,0 454.87,-124.96 560.29,-312.37 -66.37,-41 -283.07,-165.94 -283.07,-165.94 -62.47,81.98 -140.57,165.94 -259.66,165.94 -136.65,0 -249.9,-68.32 -281.12,-210.85 27.32,0 843.37,0 843.37,0 1.95,-27.34 0,-42.95 0,-72.23 0,-427.55 -244.02,-655.98 -589.57,-655.98 -353.37,0 -613.03,261.61 -613.03,624.73zm609.1 -320.17c113.25,0 175.72,54.66 218.67,169.84 -41,0 -454.89,0 -454.89,0 44.91,-111.28 113.23,-169.84 236.22,-169.84z"/>
  <path id="5" class="fil0" d="M7629.48 624.73c82.01,0 126.91,23.42 126.91,23.42 0,-109.33 0,-249.88 0,-374.84 -33.2,0 -58.57,0 -82.01,0 -144.47,0 -255.75,123.01 -285.03,212.8 0,-76.13 0,-189.36 0,-189.36l-353.37 0 0 1198.69 367.03 0c0,0 0,-326.03 0,-552.49 0,-232.31 85.91,-318.22 226.46,-318.22z"/>
  <path id="6" class="fil0" d="M7822.76 901.95c0,333.83 281.12,634.49 648.15,634.49 390.45,0 654.01,-275.27 654.01,-640.35 0,-361.18 -283.07,-622.78 -646.2,-622.78 -368.96,0 -655.96,269.41 -655.96,628.64zm654.01 -286.98c169.84,0 287,121.04 287,275.27 0,187.41 -109.33,302.59 -288.95,302.59 -165.94,0 -288.93,-124.94 -288.93,-285.03 0,-163.99 115.18,-292.83 290.88,-292.83z"/>
  <path id="7" class="fil0" d="M9261.59 898.05c0,402.16 253.8,626.69 622.78,626.69 251.83,0 454.87,-124.96 560.29,-312.37 -66.37,-41 -283.07,-165.94 -283.07,-165.94 -62.47,81.98 -140.57,165.94 -259.66,165.94 -136.65,0 -249.9,-68.32 -281.12,-210.85 27.32,0 843.37,0 843.37,0 1.95,-27.34 0,-42.95 0,-72.23 0,-427.55 -244.02,-655.98 -589.57,-655.98 -353.37,0 -613.03,261.61 -613.03,624.73zm609.1 -320.17c113.25,0 175.72,54.66 218.67,169.84 -41,0 -454.89,0 -454.89,0 44.91,-111.28 113.23,-169.84 236.22,-169.84z"/>
 </g>
</svg>
