<!-- Generated by IcoMoon.io -->
<svg version="1.1" xmlns="http://www.w3.org/2000/svg" width="32" height="32" viewBox="0 0 32 32">
<path fill="#777" d="M2.441 24.228c-0.259 0-0.469 0.21-0.469 0.469v6.834c0 0.259 0.21 0.469 0.469 0.469s0.469-0.21 0.469-0.469v-6.834c0-0.259-0.21-0.469-0.469-0.469zM10.578 19.894h-5.519c-0.259 0-0.469 0.21-0.469 0.469v8.436c0 0.259 0.21 0.469 0.469 0.469h5.519c0.259 0 0.469-0.21 0.469-0.469v-8.436c0-0.259-0.21-0.469-0.469-0.469zM8.6 28.33h-1.118v-2.252h1.118zM10.109 28.33h-0.572v-2.721c0-0.259-0.21-0.469-0.469-0.469h-2.055c-0.259 0-0.469 0.21-0.469 0.469v2.721h-1.017v-7.499h4.581zM31.413 11.731c0-2.26-1.648-4.142-3.805-4.508 0.678-0.713 1.096-1.676 1.096-2.735 0-0.594-0.128-1.165-0.381-1.698-0.691-1.695-2.318-2.79-4.148-2.79h-2.894c-0.259 0-0.469 0.21-0.469 0.469 0 0.707 0.167 1.402 0.485 2.028-0.351 0.604-0.535 1.286-0.535 1.991 0 1.149 0.491 2.184 1.273 2.91-0.394 0.133-0.768 0.32-1.112 0.555-0.2-0.262-0.514-0.432-0.869-0.432h-5.442c-0.603 0-1.094 0.491-1.094 1.094v1.92c0 0.259 0.21 0.469 0.469 0.469s0.469-0.21 0.469-0.469v-1.92c0-0.086 0.070-0.156 0.156-0.156h5.442c0.069 0 0.127 0.045 0.147 0.107-0.021 0.022-0.043 0.043-0.064 0.066-0.775 0.841-1.204 1.932-1.21 3.076 0 0.004-0 3.939-0 3.939h-4.471v-2.976c0-0.259-0.21-0.469-0.469-0.469s-0.469 0.21-0.469 0.469v2.976h-1.171v-3.728c0-0.006-0.001-0.012-0.001-0.018s0.001-0.012 0.001-0.018c0-0.924-0.347-1.767-0.917-2.408 0.625-0.803 0.845-1.861 0.573-2.857l-0.554-2.033c-0.492-1.805-2.143-3.066-4.014-3.066s-3.522 1.26-4.014 3.066l-0.554 2.033c-0.272 0.995-0.051 2.054 0.574 2.857-0.566 0.636-0.912 1.473-0.917 2.388-0 0.003-0.001 0.007-0.001 0.010v3.772h-1.492c-0.259 0-0.469 0.21-0.469 0.469v2.53c0 0.259 0.21 0.469 0.469 0.469h0.941v3.089c0 0.259 0.21 0.469 0.469 0.469s0.469-0.21 0.469-0.469v-3.089h16.019v0.78h-3.674c-0.259 0-0.469 0.21-0.469 0.469v3.458c0 0.259 0.21 0.469 0.469 0.469h6.126v0.584h-6.126c-0.259 0-0.469 0.21-0.469 0.469v3.458c0 0.259 0.21 0.469 0.469 0.469h6.126v2.264c0 0.259 0.21 0.469 0.469 0.469s0.469-0.21 0.469-0.469v-11.394h5.705v11.394c0 0.259 0.21 0.469 0.469 0.469s0.469-0.21 0.469-0.469v-7.915c0.15 0.036 0.304 0.054 0.461 0.054 1.098 0 1.991-0.893 1.991-1.991v-3.478c0-0.259-0.21-0.469-0.469-0.469s-0.469 0.21-0.469 0.469v3.478c0 0.581-0.473 1.053-1.053 1.053-0.162 0-0.319-0.036-0.461-0.106v-2.599c0.335-0.168 0.566-0.514 0.566-0.914v-6.868h0.949v3.819c0 0.259 0.21 0.469 0.469 0.469s0.469-0.21 0.469-0.469c0 0-0.001-4.303-0.001-4.311s0.001-0.015 0.001-0.023zM21.7 4.487c0-0.349 0.059-0.69 0.173-1.012 0.077 0.104 0.164 0.213 0.26 0.319 0.093 0.103 0.22 0.155 0.348 0.155 0.112 0 0.225-0.040 0.314-0.121 0.192-0.174 0.207-0.47 0.033-0.662-0.359-0.398-0.554-0.83-0.559-0.841-0.007-0.017-0.016-0.033-0.025-0.048-0-0.001-0.001-0.002-0.002-0.003-0.243-0.41-0.4-0.865-0.463-1.336h2.394c1.451 0 2.741 0.87 3.285 2.217 0.004 0.009 0.008 0.018 0.012 0.027 0.196 0.41 0.295 0.849 0.295 1.307 0 1.673-1.361 3.033-3.033 3.033s-3.033-1.361-3.033-3.033zM21.38 19.982v2.585c-0.143 0.070-0.299 0.106-0.461 0.106-0.581 0-1.053-0.473-1.053-1.053v-9.434h1.031v6.927c0 0.366 0.194 0.688 0.484 0.868zM10.005 15.646v-3.259h1.406v3.259zM6.142 9.193c0.387 0.204 0.827 0.321 1.294 0.321s0.907-0.116 1.294-0.321c1.332 0.005 2.438 0.982 2.646 2.257h-1.37v-0.399c0-0.259-0.21-0.469-0.469-0.469s-0.469 0.21-0.469 0.469v0.823c0 0.008 0.001 0.015 0.001 0.022s-0.001 0.015-0.001 0.022v2.328h-3.264v-3.197c0-0.259-0.21-0.469-0.469-0.469s-0.469 0.21-0.469 0.469v0.354h-1.362c0.226-1.253 1.322-2.208 2.637-2.212zM7.436 8.576c-1.016 0-1.843-0.827-1.843-1.843 0-0.333 0.089-0.655 0.256-0.937 0.711 0.509 1.805 1.022 3.415 1.173-0.116 0.905-0.891 1.607-1.828 1.607zM5.804 15.185h3.264v0.462h-3.264zM3.772 6.865l0.554-2.033c0.381-1.398 1.66-2.375 3.109-2.375s2.728 0.977 3.109 2.375l0.555 2.033c0.189 0.692 0.042 1.427-0.379 1.994-0.318-0.211-0.671-0.373-1.048-0.476 0.29-0.391 0.479-0.86 0.53-1.37 0.012 0 0.024 0 0.036 0 0.259 0 0.469-0.21 0.469-0.469s-0.21-0.469-0.469-0.469c-3.576 0-4.656-1.824-4.705-1.909-0.124-0.225-0.407-0.308-0.634-0.185s-0.312 0.408-0.188 0.635c0.016 0.029 0.142 0.254 0.422 0.554-0.311 0.458-0.479 1-0.479 1.561 0 0.617 0.202 1.188 0.544 1.65-0.377 0.103-0.73 0.265-1.048 0.476-0.422-0.567-0.568-1.302-0.379-1.994zM3.461 12.343h1.406v3.303h-1.406zM1.5 18.177v-1.593h17.428v1.593zM15.723 20.832h3.205v0.789c0 0.741 0.407 1.388 1.009 1.731h-4.214zM15.723 28.33v-2.52h5.657v2.52zM29.058 10.406c-0.259 0-0.469 0.21-0.469 0.469v8.239c0 0.048-0.039 0.086-0.086 0.086h-6.583c-0.048 0-0.086-0.039-0.086-0.086v-8.239c0-0.259-0.21-0.469-0.469-0.469s-0.469 0.21-0.469 0.469v0.374h-0.997c0.222-1.635 1.553-2.96 3.222-3.135 0.493 0.22 1.038 0.343 1.612 0.343 0.592 0 1.153-0.131 1.658-0.364h0.448c1.862 0 3.401 1.407 3.611 3.214h-0.924v-0.433c0-0.259-0.21-0.469-0.469-0.469zM25.171 20.98c-0.259 0-0.469 0.21-0.469 0.469v10.082c0 0.259 0.21 0.469 0.469 0.469s0.469-0.21 0.469-0.469v-10.082c0-0.259-0.21-0.469-0.469-0.469z"></path>
</svg>
