<!-- Generated by IcoMoon.io -->
<svg version="1.1" xmlns="http://www.w3.org/2000/svg" width="32" height="32" viewBox="0 0 32 32">
<path fill="#777" d="M31.467 0c-0 0-0 0-0 0h-30.933c-0.294-0-0.533 0.239-0.533 0.533 0 0 0 0 0 0v10.667h1.067v-10.133h29.867v11.733h-18.667v1.067h19.2c0.294 0 0.533-0.239 0.533-0.533 0-0 0-0 0-0v-12.8c0-0.294-0.239-0.533-0.533-0.533zM17.6 2.667h10.667v1.067h-10.667v-1.067zM19.2 5.867h10.667v1.067h-10.667v-1.067zM17.067 9.067h10.667v1.067h-10.667v-1.067zM17.024 4.598c-0.365-0.878-1.373-1.293-2.25-0.928-0.015 0.006-0.030 0.013-0.045 0.019l-4.325 2.243c0.171-0.353 0.26-0.741 0.262-1.133 0-1.473-1.194-2.667-2.667-2.667s-2.667 1.194-2.667 2.667c0.002 0.579 0.194 1.141 0.547 1.6h-0.022c-1.514 0.010-2.865 0.951-3.4 2.368l-1.424 4.907c-0.339 0.88 0.1 1.869 0.98 2.208 0.401 0.155 0.846 0.152 1.246-0.007 0.459-0.185 0.817-0.559 0.981-1.026l0.558-1.775v7.719c-0.459-0.353-1.021-0.545-1.6-0.547-1.471-0.002-2.664 1.188-2.667 2.659-0.001 0.72 0.29 1.41 0.806 1.912-0.819 0.419-1.336 1.26-1.339 2.179v4.469c-0 0.294 0.239 0.533 0.533 0.533 0 0 0 0 0 0h5.333c0.294 0 0.533-0.239 0.533-0.533 0-0 0-0 0-0v-4.469c-0.003-0.756-0.354-1.468-0.952-1.931h4.037c-0.598 0.462-0.949 1.175-0.952 1.931v4.469c-0 0.294 0.239 0.533 0.533 0.533 0 0 0 0 0 0h5.333c0.294 0 0.533-0.239 0.533-0.533 0-0 0-0 0-0v-4.469c-0.003-0.92-0.52-1.761-1.339-2.179 1.053-1.028 1.073-2.715 0.046-3.768-0.633-0.648-1.552-0.931-2.44-0.749v-10.91l4.896-2.542c0.878-0.365 1.293-1.373 0.928-2.25zM8 3.2c0.884 0 1.6 0.716 1.6 1.6s-0.716 1.6-1.6 1.6c-0.883-0.001-1.599-0.717-1.6-1.6s0.716-1.6 1.6-1.6zM3.2 21.314c0.884 0 1.6 0.716 1.6 1.6s-0.716 1.6-1.6 1.6-1.6-0.716-1.6-1.6c0.001-0.883 0.717-1.599 1.6-1.6zM5.333 30.933h-4.267v-3.936c0.001-0.771 0.626-1.396 1.398-1.397h1.471c0.771 0.001 1.397 0.626 1.398 1.397v3.936zM13.867 26.997v3.936h-4.267v-3.936c0.001-0.771 0.626-1.396 1.398-1.397h1.471c0.771 0.001 1.397 0.626 1.398 1.397zM11.733 21.314c0.883 0.001 1.599 0.717 1.6 1.6s-0.716 1.6-1.6 1.6-1.6-0.716-1.6-1.6 0.716-1.6 1.6-1.6zM16.048 5.488c-0.071 0.183-0.218 0.327-0.403 0.395l-5.224 2.71c-0.177 0.092-0.288 0.274-0.288 0.473v11.727c-0.999 0.739-1.345 2.076-0.83 3.206h-0.77v-9.067h-1.067v9.067h-1.837c0.152-0.335 0.232-0.699 0.235-1.067h0.002v-13.333c-0-0.295-0.239-0.533-0.533-0.533-0.233 0-0.439 0.151-0.509 0.373l-1.593 5.068c-0.121 0.333-0.488 0.505-0.821 0.384-0.023-0.008-0.046-0.018-0.068-0.029-0.308-0.159-0.438-0.53-0.298-0.847l1.424-4.907c0.384-0.986 1.332-1.637 2.39-1.642h3.776c0.085 0 0.17-0.020 0.246-0.060l5.301-2.752c0.318-0.133 0.685 0.003 0.839 0.311 0.082 0.162 0.092 0.352 0.028 0.522zM22.128 24.818c1.055-1.028 1.077-2.716 0.049-3.771s-2.716-1.077-3.771-0.049c-1.055 1.028-1.077 2.716-0.049 3.771 0.016 0.017 0.033 0.033 0.049 0.049-0.819 0.419-1.336 1.26-1.339 2.179v4.469c-0 0.294 0.239 0.533 0.533 0.533 0 0 0 0 0 0h5.333c0.294 0 0.533-0.239 0.533-0.533 0-0 0-0 0-0v-4.469c-0.003-0.92-0.52-1.761-1.339-2.179zM20.267 21.314c0.884 0 1.6 0.716 1.6 1.6s-0.716 1.6-1.6 1.6-1.6-0.716-1.6-1.6c0.001-0.883 0.717-1.599 1.6-1.6zM22.4 30.933h-4.267v-3.936c0.001-0.771 0.626-1.396 1.398-1.397h1.471c0.771 0.001 1.397 0.626 1.398 1.397v3.936zM30.661 24.818c1.055-1.028 1.077-2.716 0.049-3.771s-2.716-1.077-3.771-0.049c-1.055 1.028-1.077 2.716-0.049 3.771 0.016 0.017 0.033 0.033 0.049 0.049-0.819 0.419-1.336 1.26-1.339 2.179v4.469c-0 0.294 0.239 0.533 0.533 0.533 0 0 0 0 0 0h5.333c0.294 0 0.533-0.239 0.533-0.533 0-0 0-0 0-0v-4.469c-0.003-0.92-0.52-1.761-1.339-2.179zM28.8 21.314c0.884 0 1.6 0.716 1.6 1.6s-0.716 1.6-1.6 1.6-1.6-0.716-1.6-1.6c0.001-0.883 0.717-1.599 1.6-1.6zM30.933 30.933h-4.267v-3.936c0.001-0.771 0.626-1.396 1.398-1.397h1.471c0.771 0.001 1.397 0.626 1.398 1.397v3.936z"></path>
</svg>
