<!-- Generated by IcoMoon.io -->
<svg version="1.1" xmlns="http://www.w3.org/2000/svg" width="32" height="32" viewBox="0 0 32 32">
<path fill="#777" d="M22.737 12.912v-6.399c0-3.591-3.148-6.513-7.018-6.513s-7.018 2.922-7.018 6.513v1.808c0 0.31 0.252 0.561 0.561 0.561s0.561-0.251 0.561-0.561v-1.808c0-2.972 2.644-5.39 5.895-5.39s5.895 2.418 5.895 5.39v6.399h-17.965v19.088h24.702v-19.088h-5.614zM27.228 30.877h-22.456v-2.246h22.456v2.246zM4.772 27.509v-13.474h22.456v13.474h-22.456zM16 17.404c-1.238 0-2.246 1.007-2.246 2.246v3.368c0 1.238 1.007 2.246 2.246 2.246s2.246-1.007 2.246-2.246v-3.368c0-1.238-1.007-2.246-2.246-2.246zM17.123 23.018c0 0.619-0.504 1.123-1.123 1.123s-1.123-0.504-1.123-1.123v-3.368c0-0.619 0.504-1.123 1.123-1.123s1.123 0.504 1.123 1.123v3.368z"></path>
</svg>
