<!-- Generated by IcoMoon.io -->
<svg version="1.1" xmlns="http://www.w3.org/2000/svg" width="32" height="32" viewBox="0 0 32 32">
<path fill="#777" d="M13.752 16.653h-3.451v-15.524h2.132c0.272 1.724 1.768 3.047 3.567 3.047s3.295-1.323 3.567-3.047h2.132v8.641c0 0.312 0.253 0.564 0.564 0.564s0.564-0.253 0.564-0.564v-1.521l1.214 0.607c0.081 0.040 0.167 0.060 0.252 0.060 0.178 0 0.352-0.085 0.461-0.239l2.708-3.837c0.17-0.24 0.126-0.571-0.1-0.759l-4.737-3.948c-0.098-0.083-0.225-0.133-0.363-0.133h-12.527c-0.139 0-0.265 0.050-0.364 0.133l-4.737 3.947c-0.226 0.188-0.269 0.519-0.1 0.759l2.708 3.837c0.109 0.154 0.283 0.239 0.461 0.239 0.085 0 0.171-0.019 0.252-0.060l1.214-0.607v8.969c0 0.312 0.253 0.564 0.564 0.564h4.015c0.312 0 0.564-0.253 0.564-0.564s-0.253-0.564-0.564-0.564zM24.113 7.629l-1.285-0.643v-5.217l3.414 2.845-2.128 3.015zM16 3.047c-1.175 0-2.161-0.82-2.417-1.918h4.834c-0.256 1.098-1.242 1.918-2.417 1.918zM7.887 7.629l-2.128-3.015 3.414-2.845v5.217l-1.285 0.643zM26.911 10.989h-11.345c-0.312 0-0.564 0.253-0.564 0.564v19.883c0 0.312 0.253 0.564 0.564 0.564h4.345c0.299 0 0.547-0.234 0.563-0.533l0.764-13.749 0.764 13.749c0.017 0.299 0.264 0.533 0.563 0.533h4.345c0.312 0 0.564-0.253 0.564-0.564v-19.883c0-0.312-0.253-0.564-0.564-0.564zM26.347 13.38h-1.779v-1.263h1.779v1.263zM19.038 13.38v-1.263h4.401v1.263h-4.401zM17.909 12.118v1.263h-1.779v-1.263h1.779zM23.1 30.871l-0.767-13.798c-0.017-0.299-0.264-0.533-0.563-0.533h-1.062c-0.299 0-0.547 0.234-0.563 0.533l-0.767 13.798h-3.247v-16.363h10.217v16.363h-3.247z"></path>
</svg>
