<!-- Generated by IcoMoon.io -->
<svg version="1.1" xmlns="http://www.w3.org/2000/svg" width="32" height="32" viewBox="0 0 32 32">
<path fill="#777" d="M29.239 26.991l-2.291-3.816c-1.056-1.761-1.615-3.777-1.615-5.832v-3.343c0-5.145-4.188-9.333-9.333-9.333s-9.333 4.188-9.333 9.333v3.343c0 2.055-0.559 4.071-1.615 5.832l-2.291 3.816c-0.124 0.205-0.127 0.463-0.009 0.671 0.119 0.209 0.341 0.339 0.581 0.339h25.333c0.24 0 0.463-0.129 0.581-0.339 0.117-0.208 0.115-0.465-0.009-0.671zM4.511 26.667l1.684-2.807c1.181-1.968 1.805-4.221 1.805-6.517v-3.343c0-4.412 3.588-8 8-8s8 3.588 8 8v3.343c0 2.296 0.624 4.549 1.804 6.517l1.685 2.807h-22.979zM16 0c-1.471 0-2.667 1.196-2.667 2.667v2.667c0 0.368 0.299 0.667 0.667 0.667s0.667-0.299 0.667-0.667v-2.667c0-0.736 0.597-1.333 1.333-1.333s1.333 0.597 1.333 1.333v2.667c0 0.368 0.299 0.667 0.667 0.667s0.667-0.299 0.667-0.667v-2.667c0-1.471-1.196-2.667-2.667-2.667zM18.885 26.996c-0.188-0.317-0.595-0.421-0.913-0.239-0.319 0.187-0.425 0.596-0.239 0.913 0.173 0.295 0.268 0.648 0.268 0.996 0 1.103-0.897 2-2 2s-2-0.897-2-2c0-0.348 0.095-0.701 0.268-0.996 0.185-0.319 0.079-0.727-0.239-0.913-0.321-0.183-0.727-0.079-0.913 0.239-0.295 0.504-0.451 1.081-0.451 1.671 0 1.839 1.495 3.333 3.333 3.333s3.333-1.495 3.336-3.333c0-0.589-0.156-1.167-0.451-1.671z"></path>
</svg>
