<!-- Generated by IcoMoon.io -->
<svg version="1.1" xmlns="http://www.w3.org/2000/svg" width="32" height="32" viewBox="0 0 32 32">
<path fill="#777" d="M30.4 15.467v-11.733c0-1.47-1.196-2.667-2.667-2.667h-23.467c-1.47 0-2.667 1.196-2.667 2.667v8c-0.882 0-1.6 0.718-1.6 1.6v16c0 0.882 0.718 1.6 1.6 1.6h11.733c0.882 0 1.6-0.718 1.6-1.6h4.47c0.503 0 0.966-0.229 1.271-0.629s0.404-0.907 0.272-1.392l-1.049-3.846h3.035v5.867c0 0.882 0.718 1.6 1.6 1.6h5.867c0.882 0 1.6-0.718 1.6-1.6v-12.267c0-0.882-0.718-1.6-1.6-1.6zM13.867 29.333c0 0.294-0.239 0.533-0.533 0.533h-11.733c-0.294 0-0.533-0.239-0.533-0.533v-1.067h12.8v1.067zM13.867 27.2h-12.8v-11.733h12.8v11.733zM13.867 14.4h-12.8v-1.067c0-0.294 0.239-0.533 0.533-0.533h11.733c0.294 0 0.533 0.239 0.533 0.533v1.067zM19.918 27.593c0.044 0.162 0.011 0.331-0.091 0.464s-0.256 0.21-0.424 0.21h-4.47v-1.067h4.877l0.107 0.393zM14.933 26.133v-2.667h3.859l0.727 2.667h-4.587zM22.933 22.4h-8v-3.2h8v3.2zM22.933 17.067v1.067h-8v-4.8c0-0.882-0.718-1.6-1.6-1.6h-10.667v-8c0-0.882 0.718-1.6 1.6-1.6h23.467c0.882 0 1.6 0.718 1.6 1.6v11.733h-4.8c-0.882 0-1.6 0.718-1.6 1.6zM30.933 29.333c0 0.294-0.239 0.533-0.533 0.533h-5.867c-0.294 0-0.533-0.239-0.533-0.533v-1.067h6.933v1.067zM30.933 27.2h-6.933v-8h6.933v8zM30.933 18.133h-6.933v-1.067c0-0.294 0.239-0.533 0.533-0.533h5.867c0.294 0 0.533 0.239 0.533 0.533v1.067zM2.823 23.089l2.133-2.133 0.754 0.754-2.133 2.133-0.754-0.754zM4.956 24.689l6.4-6.4 0.754 0.754-6.4 6.4-0.754-0.754zM6.022 19.89l3.2-3.2 0.754 0.754-3.2 3.2-0.754-0.754zM25.222 23.090l2.666-2.666 0.754 0.754-2.666 2.666-0.754-0.754zM26.288 25.225l2.666-2.666 0.754 0.754-2.666 2.666-0.754-0.754zM14.022 10.29l3.2-3.2 0.754 0.754-3.2 3.2-0.754-0.754zM18.823 9.223l3.2-3.2 0.754 0.754-3.2 3.2-0.754-0.754zM15.622 12.424l2.133-2.133 0.754 0.754-2.133 2.133-0.754-0.754zM18.286 6.030l2.139-2.139 0.754 0.754-2.139 2.139-0.754-0.754zM3.733 3.2h1.067v1.067h-1.067v-1.067zM5.867 3.2h1.067v1.067h-1.067v-1.067zM8 3.2h1.067v1.067h-1.067v-1.067z"></path>
</svg>
