<!-- Generated by IcoMoon.io -->
<svg version="1.1" xmlns="http://www.w3.org/2000/svg" width="32" height="32" viewBox="0 0 32 32">
<path fill="#777" d="M31.412 28.512h-3.248l-0.788-7.49 0.873 1.309 0.216 1.082c0.104 0.522 0.432 0.966 0.9 1.22 0.265 0.144 0.556 0.216 0.849 0.216 0.224 0 0.449-0.043 0.664-0.128 0.462-0.185 0.828-0.557 1.006-1.023s0.151-0.987-0.072-1.433l-0.456-0.912c-0.002-0.004-0.005-0.006-0.007-0.009-0.001-0.003-0.001-0.005-0.002-0.008l-3.194-5.857c-0.059-0.109-0.155-0.193-0.269-0.24l-1.443-0.577c1.083-0.88 1.777-2.22 1.777-3.72 0-0.802-0.211-1.592-0.6-2.299l-0.275-2.748c0.857-0.363 1.407-1.076 1.407-1.874 0-1.146-1.138-2.084-2.557-2.128-0.566-0.982-1.615-1.599-2.767-1.599s-2.201 0.617-2.767 1.599c-1.419 0.044-2.557 0.982-2.557 2.128 0 0.798 0.55 1.51 1.407 1.874l-0.275 2.748c-0.389 0.707-0.6 1.497-0.6 2.299 0 1.5 0.694 2.841 1.778 3.72l-1.443 0.577c-0.085 0.034-0.16 0.090-0.218 0.162l-1.797 2.246-2.171-1.737-0.58-0.966c-0.098-0.165-0.224-0.304-0.36-0.431v-1.441c0-0.693-0.447-1.279-1.065-1.499v-2.228h0.532c0.881 0 1.597-0.717 1.597-1.597v-3.194c0-0.881-0.717-1.597-1.597-1.597h-2.13c-0.881 0-1.597 0.717-1.597 1.597v3.194c0 0.881 0.717 1.597 1.597 1.597h0.532v2.228c-0.618 0.22-1.065 0.806-1.065 1.499v2.13c0 0.001 0 0.002 0 0.002-0.133 0.317-0.193 0.662-0.15 1.016 0.076 0.616 0.425 1.153 0.957 1.472l1.007 0.604 3.539 3.097c0.595 0.52 1.466 0.531 2.074 0.024l1.488-1.241-0.878 8.335h-9.308l0.625-1.249c0.997-0.385 1.708-1.347 1.708-2.478v-1.163c0.618-0.22 1.065-0.806 1.065-1.499 0-0.881-0.717-1.597-1.597-1.597h-9.583c-0.881 0-1.597 0.717-1.597 1.597 0 0.693 0.447 1.279 1.065 1.499v1.163c0 1.131 0.712 2.093 1.708 2.478l0.625 1.249h-2.865c-0.294 0-0.532 0.239-0.532 0.532v2.13c0 0.294 0.239 0.532 0.532 0.532h30.88c0.294 0 0.532-0.239 0.532-0.532v-2.13c0-0.294-0.239-0.532-0.532-0.532zM11.713 8.28h-0.532c-0.293 0-0.532-0.239-0.532-0.532v-3.194c0-0.293 0.239-0.532 0.532-0.532h0.532v4.259zM30.86 22.74c0.091 0.182 0.102 0.388 0.029 0.578s-0.217 0.337-0.406 0.413c-0.199 0.079-0.422 0.067-0.61-0.036s-0.322-0.282-0.364-0.492l-0.137-0.687 1.223-0.306 0.265 0.53zM27.31 16.157l2.773 5.083-1.098 0.274-1.872-2.808-0.773-2.938 0.97 0.388zM26.141 19.461l0.953 9.051h-7.336l0.952-9.051h5.431zM20.923 18.396l0.785-2.984c0.021 0.008 0.043 0.014 0.064 0.021 0.107 0.039 0.215 0.077 0.325 0.109 0.042 0.012 0.085 0.022 0.127 0.032 0.102 0.027 0.203 0.052 0.307 0.072 0.052 0.010 0.105 0.016 0.157 0.024 0.096 0.015 0.192 0.031 0.29 0.040 0.069 0.006 0.138 0.007 0.207 0.011 0.081 0.004 0.16 0.012 0.242 0.012s0.161-0.008 0.242-0.012c0.069-0.004 0.138-0.004 0.207-0.011 0.098-0.009 0.194-0.025 0.29-0.040 0.052-0.008 0.105-0.014 0.157-0.024 0.104-0.020 0.206-0.046 0.307-0.072 0.042-0.011 0.085-0.020 0.127-0.032 0.11-0.032 0.218-0.069 0.325-0.109 0.021-0.008 0.043-0.013 0.064-0.021l0.785 2.984h-5.007zM19.167 4.021c0-0.577 0.732-1.065 1.597-1.065 0.031 0 0.060 0.004 0.090 0.007l0.086 0.008c0.224 0.013 0.439-0.112 0.53-0.321 0.336-0.784 1.105-1.291 1.957-1.291s1.62 0.507 1.957 1.291c0.090 0.209 0.308 0.339 0.53 0.321l0.086-0.008c0.029-0.003 0.059-0.007 0.089-0.007 0.866 0 1.597 0.488 1.597 1.065 0 0.425-0.43 0.832-1.046 0.99-0.255 0.065-0.424 0.307-0.398 0.569l0.324 3.233h-6.277l0.323-3.233c0.026-0.262-0.143-0.504-0.398-0.569-0.615-0.158-1.046-0.565-1.046-0.99zM19.699 10.942c0-0.361 0.054-0.72 0.157-1.065h7.139c0.104 0.345 0.158 0.704 0.158 1.065 0 1.478-0.867 2.754-2.117 3.356-0.121 0.058-0.244 0.11-0.369 0.154-0.006 0.002-0.012 0.004-0.018 0.006-0.793 0.277-1.653 0.277-2.446 0-0.006-0.002-0.012-0.004-0.018-0.006-0.125-0.044-0.248-0.096-0.369-0.154-1.249-0.602-2.116-1.878-2.116-3.356zM12.778 4.021h0.532c0.293 0 0.532 0.239 0.532 0.532v3.194c0 0.293-0.239 0.532-0.532 0.532h-0.532v-4.259zM12.245 12.539c0.293 0 0.532 0.239 0.532 0.532v0.925c-0.003-0.001-0.007-0.001-0.010-0.001-0.013-0.002-0.024-0.007-0.037-0.009-0.029-0.004-0.058 0.002-0.087-0.001-0.093-0.007-0.184-0.009-0.277-0.003-0.046 0.003-0.092 0.003-0.137 0.009-0.11 0.014-0.217 0.039-0.323 0.071-0.045 0.014-0.089 0.028-0.133 0.045-0.020 0.007-0.041 0.012-0.061 0.020v-1.056h-0.001c0-0.293 0.239-0.532 0.532-0.532zM12.004 16.778c-0.25-0.15-0.413-0.401-0.448-0.689-0.023-0.188 0.015-0.372 0.098-0.535 0.002-0.004 0.006-0.007 0.008-0.011 0.023-0.044 0.046-0.081 0.069-0.116 0.029-0.040 0.057-0.080 0.092-0.116 0.075-0.075 0.161-0.132 0.252-0.176 0.007-0.004 0.015-0.009 0.022-0.012 0.091-0.041 0.188-0.067 0.287-0.077 0.007-0.001 0.014-0.002 0.022-0.002 0.096-0.008 0.194 0.001 0.29 0.022 0.010 0.002 0.020 0.004 0.030 0.007 0.1 0.027 0.196 0.068 0.285 0.128 0.003 0.002 0.006 0.003 0.009 0.004 0.107 0.075 0.2 0.17 0.27 0.286l0.415 0.692-1.009 1.009-0.692-0.415zM17.395 20.599c-0.202 0.168-0.494 0.166-0.692-0.008l-3.147-2.754 0.858-0.858 2.29 1.832c0.229 0.184 0.564 0.147 0.748-0.083l2.042-2.552 1.017-0.407-0.752 2.86-2.364 1.97zM1.597 22.655c-0.293 0-0.532-0.239-0.532-0.532s0.239-0.532 0.532-0.532h9.583c0.293 0 0.532 0.239 0.532 0.532s-0.239 0.532-0.532 0.532h-9.583zM2.13 24.785v-1.065h8.519v1.065c0 0.881-0.717 1.597-1.597 1.597h-5.324c-0.881 0-1.597-0.717-1.597-1.597zM8.722 27.447l-0.532 1.065h-1.268v-1.065h1.801zM5.856 27.447v1.065h-1.268l-0.532-1.065h1.801zM30.88 30.641h-29.815v-1.065h29.815v1.065zM25.023 21.59h-3.194c-0.294 0-0.532 0.239-0.532 0.532v1.597c0 1.175 0.955 2.13 2.13 2.13s2.13-0.955 2.13-2.13v-1.597c0-0.294-0.239-0.532-0.532-0.532zM24.491 23.72c0 0.587-0.478 1.065-1.065 1.065s-1.065-0.478-1.065-1.065v-1.065h2.13v1.065zM5.856 16.266h1.065v2.662h-1.065v-2.662zM8.519 17.331h1.065v2.13h-1.065v-2.13zM3.194 17.331h1.065v2.13h-1.065v-2.13zM5.856 14.137h1.065v1.065h-1.065v-1.065zM3.194 15.201h1.065v1.065h-1.065v-1.065zM8.519 15.201h1.065v1.065h-1.065v-1.065z"></path>
</svg>
