<!-- Generated by IcoMoon.io -->
<svg version="1.1" xmlns="http://www.w3.org/2000/svg" width="32" height="32" viewBox="0 0 32 32">
<path fill="#777" d="M30.658 24.153c-0.464-2.683-2.528-4.799-5.212-5.366l-5.728-1.238c-0.052 0-0.052 0-0.103 0v-3.251c1.6-1.135 2.58-3.044 2.58-5.005v-3.096c0-3.406-2.786-6.192-6.192-6.192s-6.192 2.786-6.192 6.192v3.096c0 2.012 0.98 3.87 2.58 5.005v3.251c-0.052 0-0.052 0-0.103 0l-5.728 1.187c-2.683 0.568-4.747 2.683-5.212 5.366l-1.342 7.276c-0.052 0.258 0.155 0.568 0.413 0.619 0.052 0 0.052 0 0.103 0h30.96c0.31 0 0.516-0.206 0.516-0.516 0-0.052 0-0.052 0-0.103l-1.342-7.224zM16.004 1.036c2.477 0 4.541 1.703 5.057 4.128h-10.114c0.516-2.425 2.58-4.128 5.057-4.128zM20.958 6.196l-1.548 1.548h-6.811l-1.548-1.548h9.907zM10.844 9.292v-1.858l1.187 1.187c0.103 0.103 0.206 0.155 0.361 0.155h7.224c0.155 0 0.258-0.052 0.361-0.155l1.187-1.187v1.858c0 2.838-2.322 5.16-5.16 5.16s-5.16-2.322-5.16-5.16zM18.584 14.916v3.457l-0.361 0.361c-0.568 0.568-1.393 0.929-2.167 0.929h-0.103c-0.826 0-1.6-0.31-2.167-0.929l-0.361-0.361v-3.457c0.826 0.361 1.703 0.568 2.58 0.568s1.754-0.206 2.58-0.568zM11.36 18.838l0.877-0.206 0.774 0.826c0.774 0.774 1.806 1.187 2.941 1.187h0.103c1.084 0 2.167-0.413 2.941-1.187l0.826-0.826 0.877 0.206v1.651l-2.735 3.612c-0.929-1.084-2.528-1.187-3.612-0.258-0.103 0.103-0.155 0.155-0.258 0.258l-2.735-3.612v-1.651zM16.004 27.352c-0.877 0-1.548-0.671-1.548-1.548s0.671-1.548 1.548-1.548c0.877 0 1.548 0.671 1.548 1.548v3.096h-1.032v-1.032c0-0.31-0.206-0.516-0.516-0.516zM7.748 30.964h-6.605l0.206-1.032h6.398v1.032zM23.228 31.016h-14.448v-6.76h-1.032v4.644h-6.244l0.826-4.592c0.413-2.27 2.167-4.076 4.438-4.541l3.56-0.774v1.651c0 0.103 0.052 0.206 0.103 0.31l3.096 4.128c-0.052 0.206-0.103 0.464-0.103 0.722 0 1.238 0.877 2.27 2.064 2.528v1.084c0 0.31 0.206 0.516 0.516 0.516h2.064c0.31 0 0.516-0.206 0.516-0.516v-3.612c0-0.258-0.052-0.516-0.103-0.722l3.096-4.128c0.052-0.103 0.103-0.206 0.103-0.31v-1.6l3.56 0.774c2.27 0.464 4.025 2.27 4.438 4.541l0.826 4.592h-6.244v-4.644h-1.032v6.708zM24.26 30.964v-1.032h6.398l0.206 1.032h-6.605zM15.488 25.288h1.032v1.032h-1.032v-1.032z"></path>
</svg>
