<!-- Generated by IcoMoon.io -->
<svg version="1.1" xmlns="http://www.w3.org/2000/svg" width="32" height="32" viewBox="0 0 32 32">
<path fill="#777" d="M11.357 22.926c-0.045-0.013-0.091-0.020-0.138-0.023 0.685-0.72 1.106-1.692 1.106-2.761v-3.288c0-0.030-0.003-0.059-0.007-0.088 0.004-0.059 0.007-0.119 0.007-0.18v-2.080c0-0.345-0.28-0.625-0.625-0.625h-4.192c-1.765 0-3.201 1.436-3.201 3.201v3.060c0 1.069 0.422 2.041 1.106 2.761-0.046 0.003-0.093 0.010-0.138 0.023-2.954 0.267-5.276 2.757-5.276 5.779v2.67c0 0.345 0.28 0.625 0.625 0.625h15.383c0.345 0 0.625-0.28 0.625-0.625v-2.67c0-3.022-2.322-5.511-5.275-5.779zM5.557 17.875v-0.793c0-1.076 0.875-1.951 1.951-1.951h3.567v1.455c0 0.733-0.596 1.329-1.329 1.329h-4.19v-0.040zM5.557 19.165h4.19c0.486 0 0.94-0.135 1.329-0.37v1.347c0 1.521-1.238 2.759-2.759 2.759s-2.759-1.238-2.759-2.759v-0.977zM9.677 24.152l-1.36 1.36-1.36-1.36h2.721zM15.383 30.75v0h-14.133v-1.25h2.594c0.345 0 0.625-0.28 0.625-0.625s-0.28-0.625-0.625-0.625h-2.571c0.21-2.107 1.863-3.795 3.953-4.061l2.648 2.648c0.117 0.117 0.276 0.183 0.442 0.183s0.325-0.066 0.442-0.183l2.648-2.648c2.239 0.285 3.976 2.2 3.976 4.515v2.045zM26.725 9.045c-0.045-0.013-0.091-0.020-0.138-0.023 0.685-0.72 1.106-1.692 1.106-2.761v-3.288c0-0.030-0.003-0.059-0.007-0.088 0.004-0.059 0.007-0.119 0.007-0.179v-2.080c0-0.345-0.28-0.625-0.625-0.625h-4.192c-1.765 0-3.201 1.436-3.201 3.201v3.060c0 1.069 0.422 2.041 1.106 2.761-0.047 0.002-0.093 0.010-0.138 0.023-2.953 0.268-5.275 2.757-5.275 5.779v2.67c0 0.345 0.28 0.625 0.625 0.625h5.029c0.345 0 0.625-0.28 0.625-0.625s-0.28-0.625-0.625-0.625h-4.404v-2.045c0-2.315 1.737-4.231 3.976-4.515l2.648 2.648c0.122 0.122 0.282 0.183 0.442 0.183s0.32-0.061 0.442-0.183l2.648-2.648c2.239 0.285 3.976 2.2 3.976 4.515v2.045h-4.604c-0.345 0-0.625 0.28-0.625 0.625s0.28 0.625 0.625 0.625h5.229c0.345 0 0.625-0.28 0.625-0.625v-2.67c0-3.022-2.322-5.511-5.275-5.779zM23.684 11.631l-1.36-1.36h2.721l-1.36 1.36zM26.443 6.261c0 1.521-1.238 2.759-2.759 2.759s-2.759-1.238-2.759-2.759v-0.977h4.19c0.486 0 0.94-0.135 1.329-0.37v1.347zM26.443 2.705c0 0.733-0.596 1.329-1.329 1.329h-4.19v-0.833c0-1.076 0.875-1.951 1.951-1.951h3.567v1.455zM24.126 17.052c-0.116-0.116-0.277-0.183-0.442-0.183s-0.326 0.067-0.442 0.183c-0.117 0.116-0.183 0.277-0.183 0.442s0.066 0.326 0.183 0.442c0.116 0.117 0.277 0.183 0.442 0.183s0.326-0.066 0.442-0.183c0.116-0.116 0.183-0.277 0.183-0.442s-0.067-0.326-0.183-0.442zM16.713 8.746l-2.614-2.614v-3.007c0-1.723-1.402-3.125-3.125-3.125h-7.849c-1.723 0-3.125 1.402-3.125 3.125v5.5c0 1.723 1.402 3.125 3.125 3.125h7.849c1.292 0 2.419-0.775 2.892-1.938h2.405c0.253 0 0.481-0.152 0.577-0.386s0.043-0.502-0.135-0.681zM13.41 8.563c-0.291 0-0.544 0.201-0.609 0.485-0.197 0.855-0.948 1.453-1.827 1.453h-7.849c-1.034 0-1.875-0.841-1.875-1.875v-5.5c0-1.034 0.841-1.875 1.875-1.875h7.849c1.034 0 1.875 0.841 1.875 1.875v3.266c0 0.166 0.066 0.325 0.183 0.442l1.73 1.73h-1.352zM28.875 20.25h-7.849c-1.292 0-2.419 0.775-2.892 1.938h-2.405c-0.253 0-0.481 0.152-0.577 0.386s-0.043 0.502 0.135 0.681l2.614 2.614v3.007c0 1.723 1.402 3.125 3.125 3.125h7.849c1.723 0 3.125-1.402 3.125-3.125v-5.5c0-1.723-1.402-3.125-3.125-3.125zM30.75 28.875c0 1.034-0.841 1.875-1.875 1.875h-7.849c-1.034 0-1.875-0.841-1.875-1.875v-3.266c0-0.166-0.066-0.325-0.183-0.442l-1.73-1.73h1.352c0.291 0 0.544-0.201 0.609-0.485 0.197-0.855 0.948-1.453 1.827-1.453h7.849c1.034 0 1.875 0.841 1.875 1.875v5.5zM27.76 24.462c-0.244-0.244-0.64-0.244-0.884 0l-1.661 1.661-0.773-0.773c-0.244-0.244-0.64-0.244-0.884 0s-0.244 0.64 0 0.884l1.215 1.215c0.122 0.122 0.282 0.183 0.442 0.183s0.32-0.061 0.442-0.183l2.103-2.103c0.244-0.244 0.244-0.64 0-0.884zM9.891 4.142c-0.074-1.072-0.938-1.936-2.009-2.009-0.608-0.042-1.187 0.163-1.631 0.577-0.438 0.408-0.689 0.986-0.689 1.584 0 0.345 0.28 0.625 0.625 0.625s0.625-0.28 0.625-0.625c0-0.257 0.104-0.495 0.292-0.671s0.434-0.262 0.692-0.244c0.452 0.031 0.817 0.396 0.848 0.848 0.032 0.457-0.268 0.862-0.713 0.961-0.487 0.109-0.827 0.532-0.827 1.029v0.333c0 0.345 0.28 0.625 0.625 0.625s0.625-0.28 0.625-0.625v-0.182c0.968-0.289 1.607-1.202 1.537-2.228zM8.171 8.501c-0.116-0.116-0.277-0.183-0.442-0.183s-0.326 0.067-0.442 0.183c-0.117 0.116-0.183 0.277-0.183 0.442s0.066 0.326 0.183 0.442c0.116 0.116 0.277 0.183 0.442 0.183s0.326-0.067 0.442-0.183 0.183-0.277 0.183-0.442-0.067-0.326-0.183-0.442zM6.786 28.433c-0.116-0.116-0.277-0.183-0.442-0.183s-0.326 0.067-0.442 0.183-0.183 0.277-0.183 0.442 0.067 0.326 0.183 0.442c0.116 0.116 0.277 0.183 0.442 0.183s0.326-0.067 0.442-0.183 0.183-0.277 0.183-0.442-0.067-0.326-0.183-0.442z"></path>
</svg>
