<!-- Generated by IcoMoon.io -->
<svg version="1.1" xmlns="http://www.w3.org/2000/svg" width="32" height="32" viewBox="0 0 32 32">
<path fill="#777" d="M23.663 18.187c-2.153-2.599-4.874-4.031-7.663-4.031s-5.51 1.432-7.663 4.031c-1.935 2.337-3.091 5.281-3.091 7.877 0 1.261 0.386 2.221 1.146 2.855 0.75 0.625 1.741 0.837 2.846 0.837 1.176 0 2.482-0.239 3.765-0.475 1.121-0.206 2.18-0.4 2.996-0.4 0.704 0 1.698 0.184 2.749 0.38 2.457 0.456 5.243 0.973 6.851-0.364 0.765-0.636 1.153-1.589 1.153-2.832 0-2.596-1.155-5.541-3.090-7.877zM24.402 27.454c-0.933 0.776-3.36 0.325-5.311-0.037-1.139-0.211-2.214-0.411-3.091-0.411-0.987 0-2.127 0.209-3.335 0.431-1.871 0.343-4.199 0.77-5.073 0.042-0.117-0.097-0.471-0.392-0.471-1.415 0-2.14 1.019-4.7 2.66-6.681 1.79-2.162 3.999-3.352 6.219-3.352s4.429 1.191 6.219 3.352c1.64 1.981 2.66 4.541 2.66 6.681 0 0.994-0.358 1.292-0.476 1.39zM23.883 4.072c-0.788-1.161-1.916-1.827-3.095-1.827s-2.307 0.666-3.095 1.827c-0.724 1.067-1.122 2.468-1.122 3.945s0.398 2.878 1.122 3.945c0.788 1.161 1.916 1.828 3.095 1.828s2.307-0.666 3.095-1.828c0.724-1.067 1.122-2.468 1.122-3.945s-0.398-2.878-1.122-3.945zM22.331 10.91c-0.255 0.375-0.794 1.005-1.543 1.005s-1.288-0.63-1.543-1.005c-0.508-0.749-0.799-1.803-0.799-2.893s0.291-2.144 0.799-2.893c0.255-0.375 0.794-1.005 1.543-1.005s1.289 0.63 1.543 1.005c0.508 0.749 0.799 1.803 0.799 2.893s-0.291 2.144-0.799 2.893zM14.307 4.072c-0.788-1.161-1.916-1.827-3.095-1.827s-2.307 0.666-3.095 1.827c-0.724 1.067-1.122 2.468-1.122 3.945s0.399 2.878 1.122 3.945c0.788 1.161 1.916 1.828 3.095 1.828s2.307-0.666 3.095-1.828c0.724-1.067 1.122-2.468 1.122-3.945s-0.399-2.878-1.122-3.945zM12.755 10.91c-0.255 0.375-0.794 1.005-1.543 1.005s-1.289-0.63-1.543-1.005c-0.508-0.749-0.799-1.803-0.799-2.893s0.291-2.144 0.799-2.893c0.255-0.375 0.794-1.005 1.543-1.005s1.288 0.63 1.543 1.005c0.508 0.749 0.799 1.803 0.799 2.893s-0.291 2.144-0.799 2.893zM31.814 13.133c-0.318-1.080-0.998-1.865-1.917-2.21-0.739-0.278-1.573-0.23-2.349 0.133-1.069 0.5-1.943 1.533-2.397 2.834-0.371 1.063-0.418 2.187-0.13 3.164 0.318 1.080 0.998 1.865 1.917 2.21 0.318 0.119 0.653 0.179 0.994 0.179 0.452 0 0.913-0.104 1.355-0.311 1.069-0.5 1.943-1.533 2.397-2.834v-0c0.371-1.063 0.418-2.187 0.13-3.164zM29.913 15.679c-0.285 0.815-0.816 1.471-1.422 1.754-0.223 0.104-0.559 0.202-0.895 0.076-0.812-0.305-1.128-1.707-0.676-3 0.285-0.815 0.816-1.471 1.422-1.754 0.148-0.069 0.345-0.135 0.559-0.135 0.109 0 0.222 0.017 0.336 0.060 0.812 0.305 1.128 1.707 0.676 3.001zM6.849 13.89c-0.454-1.301-1.328-2.334-2.397-2.834-0.776-0.363-1.61-0.41-2.349-0.133-0.918 0.345-1.599 1.13-1.917 2.21-0.287 0.977-0.241 2.101 0.13 3.164v0c0.454 1.301 1.328 2.334 2.397 2.834 0.442 0.207 0.903 0.311 1.355 0.311 0.341 0 0.676-0.059 0.994-0.179 0.918-0.345 1.599-1.13 1.917-2.21 0.287-0.977 0.241-2.101-0.13-3.164zM4.404 17.509c-0.336 0.126-0.672 0.029-0.895-0.076-0.606-0.283-1.137-0.939-1.422-1.754v0c-0.452-1.293-0.136-2.696 0.676-3.001 0.336-0.126 0.672-0.029 0.895 0.075 0.606 0.283 1.137 0.939 1.422 1.754 0.452 1.293 0.136 2.696-0.676 3z"></path>
</svg>
