<!-- Generated by IcoMoon.io -->
<svg version="1.1" xmlns="http://www.w3.org/2000/svg" width="32" height="32" viewBox="0 0 32 32">
<path fill="#777" d="M31.375 0h-30.75c-0.345 0-0.625 0.28-0.625 0.625v27.375c0 0.345 0.28 0.625 0.625 0.625h12.969c0.345 0 0.625-0.28 0.625-0.625s-0.28-0.625-0.625-0.625h-12.344v-21.628c0.021 0.002 0.042 0.003 0.063 0.003h29.437v21.625h-1.217c-0.345 0-0.625 0.28-0.625 0.625s0.28 0.625 0.625 0.625h1.842c0.345 0 0.625-0.28 0.625-0.625v-27.375c0-0.345-0.28-0.625-0.625-0.625zM30.75 4.5h-29.437c-0.021 0-0.042 0.001-0.063 0.003v-3.253h29.5v3.25zM16.692 27.558c-0.116-0.116-0.277-0.183-0.442-0.183s-0.326 0.067-0.442 0.183c-0.116 0.116-0.183 0.277-0.183 0.442s0.067 0.326 0.183 0.442c0.116 0.116 0.277 0.183 0.442 0.183s0.326-0.067 0.442-0.183c0.116-0.116 0.183-0.277 0.183-0.442s-0.067-0.326-0.183-0.442zM28 2.25h-14.121c-0.345 0-0.625 0.28-0.625 0.625s0.28 0.625 0.625 0.625h14.121c0.345 0 0.625-0.28 0.625-0.625s-0.28-0.625-0.625-0.625zM6.942 2.433c-0.116-0.116-0.277-0.183-0.442-0.183s-0.326 0.067-0.442 0.183c-0.116 0.116-0.183 0.277-0.183 0.442s0.067 0.326 0.183 0.442c0.116 0.116 0.277 0.183 0.442 0.183s0.326-0.067 0.442-0.183c0.116-0.116 0.183-0.277 0.183-0.442s-0.067-0.326-0.183-0.442zM4.442 2.433c-0.116-0.116-0.277-0.183-0.442-0.183s-0.326 0.067-0.442 0.183c-0.116 0.116-0.183 0.277-0.183 0.442s0.067 0.326 0.183 0.442c0.116 0.116 0.277 0.183 0.442 0.183s0.326-0.067 0.442-0.183c0.116-0.116 0.183-0.277 0.183-0.442s-0.067-0.326-0.183-0.442zM9.442 2.433c-0.116-0.116-0.277-0.183-0.442-0.183s-0.326 0.067-0.442 0.183-0.183 0.277-0.183 0.442 0.067 0.326 0.183 0.442c0.116 0.116 0.277 0.183 0.442 0.183s0.326-0.067 0.442-0.183c0.116-0.116 0.183-0.277 0.183-0.442s-0.067-0.326-0.183-0.442zM19.599 19.259c-0.089-0.273-0.321-0.469-0.606-0.51l-1.604-0.233-0.718-1.453c0-0-0-0-0-0-0.127-0.258-0.385-0.418-0.672-0.418-0 0-0 0-0 0-0.287 0-0.545 0.16-0.672 0.418l-0.717 1.453-1.604 0.233c-0.284 0.041-0.516 0.237-0.605 0.511s-0.016 0.568 0.19 0.769l1.161 1.131-0.274 1.598c-0.048 0.283 0.066 0.564 0.299 0.733 0.132 0.095 0.285 0.144 0.44 0.144 0.119 0 0.239-0.029 0.35-0.087l1.434-0.754 1.435 0.754c0.255 0.134 0.557 0.112 0.79-0.057s0.347-0.45 0.298-0.734l-0.274-1.597 1.16-1.131c0.206-0.201 0.279-0.495 0.19-0.769zM17.188 20.448c-0.177 0.173-0.258 0.421-0.215 0.664l0.147 0.858-0.771-0.405c-0.219-0.115-0.479-0.114-0.698 0l-0.77 0.405 0.147-0.858c0.042-0.243-0.039-0.491-0.216-0.664l-0.623-0.607 0.861-0.125c0.245-0.035 0.456-0.189 0.565-0.41l0.385-0.78 0.385 0.78c0.109 0.221 0.32 0.375 0.565 0.41l0.861 0.125-0.623 0.608zM10.753 19.259c-0.089-0.273-0.321-0.469-0.606-0.51l-1.604-0.233-0.718-1.453c0-0-0-0-0-0-0.127-0.258-0.385-0.418-0.672-0.418-0 0-0 0-0 0-0.287 0-0.545 0.16-0.672 0.418l-0.717 1.453-1.604 0.233c-0.284 0.041-0.516 0.237-0.605 0.511s-0.016 0.568 0.19 0.769l1.161 1.131-0.274 1.598c-0.048 0.283 0.066 0.564 0.299 0.733 0.131 0.095 0.285 0.144 0.44 0.144 0.119 0 0.239-0.029 0.35-0.087l1.434-0.754 1.435 0.754c0.255 0.134 0.557 0.112 0.79-0.057s0.347-0.45 0.298-0.734l-0.274-1.597 1.16-1.131c0.206-0.201 0.279-0.495 0.19-0.769zM8.342 20.448c-0.177 0.172-0.257 0.421-0.216 0.664l0.147 0.858-0.771-0.405c-0.219-0.115-0.48-0.114-0.698 0l-0.77 0.405 0.147-0.858c0.042-0.243-0.039-0.491-0.216-0.664l-0.623-0.607 0.861-0.125c0.245-0.035 0.456-0.189 0.565-0.41l0.385-0.78 0.385 0.78c0.109 0.221 0.32 0.375 0.565 0.41l0.861 0.125-0.623 0.608zM28.445 19.261c-0.089-0.273-0.321-0.469-0.605-0.511l-1.604-0.233-0.717-1.453c-0.127-0.258-0.385-0.418-0.672-0.418-0 0-0 0-0 0-0.287 0-0.545 0.16-0.672 0.418-0 0-0 0-0 0l-0.718 1.453-1.604 0.233c-0.285 0.041-0.517 0.237-0.605 0.51s-0.016 0.568 0.19 0.769l1.16 1.131-0.274 1.597c-0.049 0.283 0.066 0.564 0.298 0.733s0.535 0.191 0.79 0.057l1.434-0.754 1.434 0.755c0.111 0.058 0.23 0.087 0.35 0.087 0.155 0 0.309-0.048 0.44-0.144 0.233-0.169 0.347-0.45 0.299-0.733l-0.273-1.597 1.161-1.131c0.206-0.201 0.279-0.495 0.19-0.769zM26.033 20.449c-0.177 0.172-0.257 0.42-0.216 0.664l0.147 0.858-0.77-0.405c-0.109-0.058-0.229-0.086-0.349-0.086s-0.24 0.029-0.349 0.086l-0.77 0.405 0.147-0.858c0.042-0.243-0.039-0.491-0.215-0.664l-0.623-0.608 0.861-0.125c0.244-0.035 0.455-0.189 0.564-0.41l0.385-0.78 0.385 0.78c0.109 0.222 0.32 0.375 0.565 0.411l0.861 0.125-0.623 0.608zM28 7.375h-24c-0.345 0-0.625 0.28-0.625 0.625v6.748c0 0.345 0.28 0.625 0.625 0.625h24c0.345 0 0.625-0.28 0.625-0.625v-6.748c0-0.345-0.28-0.625-0.625-0.625zM27.375 14.123h-22.75v-2.748h9.254c0.345 0 0.625-0.28 0.625-0.625s-0.28-0.625-0.625-0.625h-9.254v-1.5h22.75v5.498zM29.533 29.117c-0.369 0-0.716 0.094-1.019 0.26-0.307-0.799-1.081-1.368-1.987-1.368-0.586 0-1.118 0.238-1.503 0.623-0.385-0.385-0.917-0.623-1.503-0.623-0.313 0-0.61 0.068-0.878 0.19v-3.687c0-1.173-0.954-2.128-2.128-2.128s-2.128 0.954-2.128 2.128v6.863c0 0.345 0.28 0.625 0.625 0.625s0.625-0.28 0.625-0.625v-6.863c0-0.484 0.394-0.878 0.878-0.878s0.878 0.394 0.878 0.878v6.863c0 0.345 0.28 0.625 0.625 0.625s0.625-0.28 0.625-0.625v-1.238c0-0.484 0.394-0.878 0.878-0.878s0.878 0.394 0.878 0.878v1.238c0 0.345 0.28 0.625 0.625 0.625s0.625-0.28 0.625-0.625v-1.238c0-0.484 0.394-0.878 0.878-0.878s0.878 0.394 0.878 0.878v1.238c0 0.345 0.28 0.625 0.625 0.625s0.625-0.28 0.625-0.625v-0.13c0-0.484 0.394-0.878 0.878-0.878s0.878 0.394 0.878 0.878c0 0.345 0.28 0.625 0.625 0.625s0.625-0.28 0.625-0.625c0-1.173-0.954-2.128-2.128-2.128zM17.129 10.308c-0.116-0.116-0.277-0.183-0.442-0.183s-0.326 0.067-0.442 0.183c-0.116 0.116-0.183 0.277-0.183 0.442s0.067 0.326 0.183 0.442c0.116 0.116 0.277 0.183 0.442 0.183s0.326-0.067 0.442-0.183c0.116-0.116 0.183-0.277 0.183-0.442s-0.067-0.326-0.183-0.442z"></path>
</svg>
