<!-- Generated by IcoMoon.io -->
<svg version="1.1" xmlns="http://www.w3.org/2000/svg" width="32" height="32" viewBox="0 0 32 32">
<path fill="#777" d="M19.75 16.25c-0.345 0-0.625 0.28-0.625 0.625s0.28 0.625 0.625 0.625 0.625-0.28 0.625-0.625-0.28-0.625-0.625-0.625zM6.386 23.112l-6.25 7.875c-0.149 0.188-0.177 0.444-0.073 0.66s0.323 0.353 0.563 0.353h30.75c0.24 0 0.459-0.137 0.563-0.353s0.076-0.472-0.073-0.66l-6.25-7.875c-0.118-0.149-0.299-0.237-0.489-0.237h-5.475l4.674-7.331c1.096-1.644 1.676-3.561 1.676-5.544 0-5.514-4.486-10-10-10s-10 4.486-10 10c0 1.983 0.579 3.9 1.676 5.544l4.674 7.331h-5.475c-0.191 0-0.371 0.087-0.489 0.237zM4.052 28.062h3.779l-2.133 2.688h-3.779zM13.147 24.125l1.713 2.688h-4.441l2.133-2.688zM18.853 24.125h0.595l2.133 2.688h-4.441zM22.573 28.062l2.133 2.688h-17.412l2.133-2.688zM26.302 30.75l-2.133-2.688h3.779l2.133 2.688zM26.956 26.813h-3.779l-2.133-2.688h3.779zM8.719 14.855c-0.961-1.439-1.469-3.118-1.469-4.855 0-4.825 3.925-8.75 8.75-8.75s8.75 3.925 8.75 8.75c0 1.738-0.508 3.416-1.469 4.855-0.003 0.004-0.005 0.007-0.007 0.011-0.41 0.644-6.957 10.913-7.274 11.408-0.795-1.247-6.464-10.138-7.274-11.408-0.002-0.004-0.005-0.007-0.007-0.011zM10.956 24.125l-2.133 2.688h-3.779l2.133-2.688zM16 16.25c3.431 0 6.25-2.779 6.25-6.25 0-3.446-2.804-6.25-6.25-6.25s-6.25 2.804-6.25 6.25c0 3.472 2.82 6.25 6.25 6.25zM16 5c2.757 0 5 2.243 5 5 0 2.783-2.261 5-5 5s-5-2.217-5-5c0-2.757 2.243-5 5-5zM18.633 18.383c-0.295-0.178-0.68-0.083-0.858 0.213l-2.31 3.832c-0.178 0.296-0.083 0.68 0.213 0.858 0.297 0.179 0.68 0.082 0.858-0.213l2.31-3.832c0.178-0.296 0.083-0.68-0.213-0.858z"></path>
</svg>
