<!-- Generated by IcoMoon.io -->
<svg version="1.1" xmlns="http://www.w3.org/2000/svg" width="32" height="32" viewBox="0 0 32 32">
<path fill="#777" d="M6.933 13.862c-0.294 0-0.533 0.239-0.533 0.533v3.2c0 0.294 0.239 0.533 0.533 0.533s0.533-0.239 0.533-0.533v-3.2c0-0.294-0.239-0.533-0.533-0.533zM6.991 0.144l-5.043 2.018c-1.42 0.526-1.948 1.24-1.948 2.633v22.405c0 1.394 0.528 2.107 1.935 2.629l5.066 2.027c0.251 0.095 0.502 0.143 0.749 0.143 1.072 0 1.85-0.896 1.85-2.131v-27.74c0-1.517-1.21-2.511-2.609-1.984zM8.534 29.868c0 0.636-0.315 1.064-0.783 1.064-0.117 0-0.243-0.025-0.363-0.070l-5.068-2.028c-1.006-0.373-1.252-0.694-1.252-1.634v-22.405c0-0.94 0.246-1.26 1.265-1.638l5.045-2.018c0.13-0.049 0.255-0.074 0.372-0.074 0.469 0 0.784 0.427 0.784 1.064v27.74zM11.134 3.195h7.533c0.882 0 1.6 0.718 1.6 1.6v8c0 0.294 0.238 0.533 0.533 0.533s0.533-0.239 0.533-0.533v-8c0-1.47-1.196-2.667-2.667-2.667h-7.533c-0.294 0-0.533 0.239-0.533 0.533s0.239 0.533 0.533 0.533zM20.8 18.662c-0.295 0-0.533 0.239-0.533 0.533v8c0 0.882-0.718 1.6-1.6 1.6h-7.467c-0.294 0-0.533 0.239-0.533 0.533s0.239 0.533 0.533 0.533h7.467c1.47 0 2.667-1.196 2.667-2.667v-8c-0-0.294-0.238-0.533-0.533-0.533zM31.96 15.791c-0.027-0.066-0.066-0.124-0.116-0.174l-5.333-5.333c-0.209-0.209-0.546-0.209-0.754 0s-0.209 0.546 0 0.754l4.423 4.424h-17.913c-0.294 0-0.533 0.239-0.533 0.533s0.239 0.533 0.533 0.533h17.913l-4.423 4.423c-0.209 0.209-0.209 0.546 0 0.754 0.104 0.104 0.241 0.156 0.377 0.156s0.273-0.052 0.377-0.156l5.333-5.333c0.050-0.050 0.089-0.108 0.116-0.174 0.054-0.13 0.054-0.277 0-0.407z"></path>
</svg>
