<!-- Generated by IcoMoon.io -->
<svg version="1.1" xmlns="http://www.w3.org/2000/svg" width="32" height="32" viewBox="0 0 32 32">
<path fill="#777" d="M13.935 18.581h1.032v5.161h-1.032v-5.161zM17.032 20.645h1.032v6.194h-1.032v-6.194zM28.236 8.925l-1.913-1.913v-6.496c0-0.285-0.231-0.516-0.516-0.516h-6.194c-0.285 0-0.516 0.231-0.516 0.516v6.496l-1.913 1.913c-0.097 0.097-0.151 0.228-0.151 0.365v4.129c0 0.855 0.693 1.548 1.548 1.548 0.176-0.002 0.351-0.034 0.516-0.095v3.192c-0.004 0.851 0.683 1.545 1.535 1.549 0.387 0.002 0.76-0.142 1.046-0.403 0.583 0.537 1.481 0.537 2.065 0 0.226 0.204 0.507 0.336 0.808 0.38-0.536 1.499-0.809 3.079-0.808 4.671v1.948c-0.001 1.498 0.241 2.986 0.715 4.407l0.117 0.351h-17.148l0.117-0.351c0.474-1.421 0.716-2.909 0.715-4.407v-1.948c0.001-1.592-0.273-3.172-0.809-4.671 0.301-0.044 0.583-0.176 0.809-0.38 0.583 0.537 1.481 0.537 2.065 0 0.629 0.574 1.604 0.529 2.178-0.1 0.261-0.286 0.404-0.659 0.403-1.046v-3.192c0.165 0.061 0.34 0.093 0.516 0.095 0.855 0 1.548-0.693 1.548-1.548v-4.129c0-0.137-0.054-0.268-0.151-0.365l-1.913-1.913v-6.496c0-0.285-0.231-0.516-0.516-0.516h-6.194c-0.285 0-0.516 0.231-0.516 0.516v6.496l-1.913 1.913c-0.097 0.097-0.151 0.228-0.151 0.365v7.742c-0.003 0.852 0.686 1.546 1.538 1.548 0.201 0.001 0.4-0.038 0.586-0.114 0.087 0.319 0.273 0.601 0.533 0.806l-0.039 0.015 0.072 0.181c0.611 1.524 0.924 3.151 0.923 4.792v1.948c0 1.387-0.223 2.765-0.662 4.081l-0.344 1.032c-0.089 0.271 0.058 0.563 0.329 0.652 0.052 0.017 0.106 0.026 0.161 0.026h18.581c0.285-0 0.516-0.231 0.516-0.517-0-0.055-0.009-0.11-0.026-0.163l-0.344-1.032c-0.438-1.315-0.662-2.693-0.662-4.079v-1.948c-0.001-1.641 0.312-3.268 0.922-4.792l0.073-0.181-0.039-0.015c0.259-0.205 0.446-0.487 0.533-0.806 0.79 0.321 1.69-0.059 2.011-0.848 0.076-0.186 0.114-0.385 0.114-0.586v-7.742c0-0.137-0.054-0.268-0.151-0.365zM6.71 18.065v-4.645h-1.032v3.613c0 0.285-0.231 0.516-0.516 0.516s-0.516-0.231-0.516-0.516v-7.528l1.913-1.913c0.097-0.097 0.151-0.228 0.151-0.365v-6.194h5.161v6.194c0 0.137 0.054 0.268 0.151 0.365l1.913 1.913v3.915c0 0.285-0.231 0.516-0.516 0.516s-0.516-0.231-0.516-0.516v-2.065h-1.032v6.71c0 0.285-0.231 0.516-0.516 0.516s-0.516-0.231-0.516-0.516v-4.645h-1.032v4.645c0 0.285-0.231 0.516-0.516 0.516s-0.516-0.231-0.516-0.516v-4.645h-1.032v4.645c0 0.285-0.231 0.516-0.516 0.516s-0.516-0.231-0.516-0.516zM27.355 17.032c0 0.285-0.231 0.516-0.516 0.516s-0.516-0.231-0.516-0.516v-3.613h-1.032v4.645c0 0.285-0.231 0.516-0.516 0.516s-0.516-0.231-0.516-0.516v-4.645h-1.032v4.645c0 0.285-0.231 0.516-0.516 0.516s-0.516-0.231-0.516-0.516v-4.645h-1.032v4.645c0 0.285-0.231 0.516-0.516 0.516s-0.516-0.231-0.516-0.516v-6.71h-1.032v2.065c0 0.285-0.231 0.516-0.516 0.516s-0.516-0.231-0.516-0.516v-3.915l1.913-1.913c0.097-0.097 0.151-0.228 0.151-0.365v-6.194h5.161v6.194c0 0.137 0.054 0.268 0.151 0.365l1.913 1.913v7.528z"></path>
</svg>
