<!-- Generated by IcoMoon.io -->
<svg version="1.1" xmlns="http://www.w3.org/2000/svg" width="32" height="32" viewBox="0 0 32 32">
<path fill="#777" d="M31.53 8.517c-0.846 0-1.534-0.688-1.534-1.534 0-0.259-0.21-0.47-0.47-0.47s-0.47 0.21-0.47 0.47c0 0.846-0.688 1.534-1.534 1.534-0.259 0-0.47 0.21-0.47 0.47s0.21 0.47 0.47 0.47c0.846 0 1.534 0.688 1.534 1.534 0 0.259 0.21 0.47 0.47 0.47s0.47-0.21 0.47-0.47c0-0.846 0.688-1.534 1.534-1.534 0.259 0 0.47-0.21 0.47-0.47s-0.21-0.47-0.47-0.47zM29.526 9.542c-0.154-0.213-0.342-0.401-0.555-0.555 0.213-0.155 0.401-0.342 0.555-0.555 0.154 0.213 0.342 0.401 0.555 0.555-0.213 0.155-0.401 0.342-0.555 0.555zM4.478 8.517c-0.846 0-1.534-0.688-1.534-1.534 0-0.259-0.21-0.47-0.47-0.47s-0.47 0.21-0.47 0.47c0 0.846-0.688 1.534-1.534 1.534-0.259 0-0.47 0.21-0.47 0.47s0.21 0.47 0.47 0.47c0.846 0 1.534 0.688 1.534 1.534 0 0.259 0.21 0.47 0.47 0.47s0.47-0.21 0.47-0.47c0-0.846 0.688-1.534 1.534-1.534 0.259 0 0.47-0.21 0.47-0.47s-0.21-0.47-0.47-0.47zM2.474 9.542c-0.155-0.213-0.342-0.401-0.555-0.555 0.213-0.155 0.401-0.342 0.555-0.555 0.155 0.213 0.342 0.401 0.555 0.555-0.213 0.155-0.401 0.342-0.555 0.555zM18.505 2.505c-1.122 0-2.035-0.913-2.035-2.035 0-0.259-0.21-0.47-0.47-0.47s-0.47 0.21-0.47 0.47c0 1.122-0.913 2.035-2.035 2.035-0.259 0-0.47 0.21-0.47 0.47s0.21 0.47 0.47 0.47c1.122 0 2.035 0.913 2.035 2.035 0 0.259 0.21 0.47 0.47 0.47s0.47-0.21 0.47-0.47c0-1.122 0.913-2.035 2.035-2.035 0.259 0 0.47-0.21 0.47-0.47s-0.21-0.47-0.47-0.47zM16 3.877c-0.232-0.361-0.541-0.67-0.902-0.902 0.362-0.232 0.67-0.541 0.902-0.902 0.232 0.361 0.541 0.67 0.902 0.902-0.361 0.232-0.67 0.541-0.902 0.902zM25.779 15.844l-1.827-5.176c-0.137-0.387-0.505-0.648-0.915-0.648h-14.198c-0.411 0-0.779 0.26-0.915 0.648l-1.827 5.177c-0.106 0.301 0.125 0.626 0.443 0.626h18.797c0.152 0 0.295-0.074 0.383-0.198s0.11-0.284 0.060-0.428zM7.203 15.53l1.606-4.551c0.004-0.012 0.017-0.021 0.030-0.021h14.198c0.013 0 0.025 0.009 0.030 0.021l1.606 4.55h-17.469zM24.955 22.043c-1.668 0-2.975 0.866-2.975 1.973s1.307 1.973 2.975 1.973 2.975-0.866 2.975-1.973-1.307-1.973-2.975-1.973zM24.955 25.049c-1.165 0-2.035-0.546-2.035-1.033s0.87-1.033 2.035-1.033c1.165 0 2.035 0.546 2.035 1.033s-0.87 1.033-2.035 1.033zM6.92 22.043c-1.668 0-2.975 0.866-2.975 1.973s1.307 1.973 2.975 1.973 2.975-0.866 2.975-1.973-1.307-1.973-2.975-1.973zM6.92 25.049c-1.165 0-2.035-0.546-2.035-1.033s0.87-1.033 2.035-1.033 2.035 0.546 2.035 1.033-0.87 1.033-2.035 1.033zM30.967 15.029h-2.505c-0.215 0-0.403 0.147-0.456 0.356l-0.33 1.32-2.308-6.538c-0.348-0.987-1.286-1.65-2.333-1.65h-14.198c-1.047 0-1.984 0.663-2.333 1.65l-2.308 6.538-0.33-1.32c-0.052-0.209-0.24-0.356-0.456-0.356h-2.505c-0.259 0-0.47 0.21-0.47 0.47v2.004c0 0.259 0.21 0.47 0.47 0.47h2.594l-1.601 2.242c-0.301 0.422-0.461 0.919-0.461 1.438v5.87c0 0.813 0.395 1.536 1.003 1.987-0 0.006-0.001 0.011-0.001 0.017v1.503c0 0.535 0.435 0.971 0.971 0.971h3.006c0.535 0 0.971-0.435 0.971-0.971v-1.033h17.096v1.033c0 0.535 0.435 0.971 0.971 0.971h3.006c0.535 0 0.971-0.435 0.971-0.971v-1.503c0-0.006-0.001-0.011-0.001-0.017 0.608-0.451 1.003-1.174 1.003-1.987v-5.87c0-0.519-0.159-1.016-0.461-1.438l-1.601-2.242h2.594c0.259 0 0.47-0.21 0.47-0.47v-2.004c0-0.259-0.21-0.47-0.47-0.47zM1.378 17.033v-1.065h1.669l0.266 1.065h-1.935zM6.45 31.029c0 0.017-0.014 0.031-0.031 0.031h-3.006c-0.017 0-0.031-0.014-0.031-0.031v-1.033h3.069v1.033zM28.493 31.029c0 0.017-0.014 0.031-0.031 0.031h-3.006c-0.017 0-0.031-0.014-0.031-0.031v-1.033h3.069v1.033zM27.961 29.057h-24.047c-0.682 0-1.262-0.448-1.46-1.065h26.968c-0.199 0.617-0.778 1.065-1.46 1.065zM19.977 23.984v1.065h-8.078v-1.065h8.078zM11.972 23.045c0.199-0.617 0.778-1.065 1.46-1.065h5.010c0.682 0 1.262 0.448 1.46 1.065h-7.931zM19.977 25.988v1.065h-8.078v-1.065h8.078zM29.209 20.76c0.187 0.262 0.286 0.57 0.286 0.892v5.401h-8.579v-3.538c0-1.364-1.11-2.474-2.474-2.474h-5.010c-1.364 0-2.474 1.11-2.474 2.474v3.538h-8.579v-5.401c0-0.322 0.099-0.63 0.286-0.892l1.991-2.788h17.293c0.259 0 0.47-0.21 0.47-0.47s-0.21-0.47-0.47-0.47h-16.87l2.313-6.554c0.216-0.612 0.798-1.024 1.447-1.024h14.198c0.649 0 1.231 0.411 1.447 1.024l2.313 6.554h-2.843c-0.259 0-0.47 0.21-0.47 0.47s0.21 0.47 0.47 0.47h3.265l1.991 2.788zM30.497 17.033h-1.935l0.266-1.065h1.669v1.065zM8.423 20.54h-3.006c-0.259 0-0.47 0.21-0.47 0.47s0.21 0.47 0.47 0.47h3.006c0.259 0 0.47-0.21 0.47-0.47s-0.21-0.47-0.47-0.47zM26.458 20.54h-3.006c-0.259 0-0.47 0.21-0.47 0.47s0.21 0.47 0.47 0.47h3.006c0.259 0 0.47-0.21 0.47-0.47s-0.21-0.47-0.47-0.47z"></path>
</svg>
