<!-- Generated by IcoMoon.io -->
<svg version="1.1" xmlns="http://www.w3.org/2000/svg" width="32" height="32" viewBox="0 0 32 32">
<path fill="#777" d="M30.176 24.164c-0.665-0.468-1.432-0.719-2.206-0.76-2.92-1.912-4.833-3.347-5.95-4.464l-3.43-3.43 2.082-2.33c0.395 0.223 0.818 0.369 1.242 0.43 0.32 0.053 0.533 0.053 0.746 0.053 0.426 0 0.533 0 0.96 0.373-0.213 0.16-0.32 0.426-0.32 0.693s0.107 0.586 0.32 0.8l1.866 1.866c0.267 0.32 0.693 0.48 1.119 0.48s0.853-0.16 1.119-0.533l3.785-3.785c0.32-0.267 0.48-0.693 0.48-1.119s-0.16-0.8-0.48-1.119l-1.866-1.866c-0.213-0.213-0.48-0.32-0.746-0.32s-0.533 0.16-0.746 0.32c-0.426-0.373-0.426-0.48-0.426-0.906 0-0.213 0-0.48-0.107-0.8-0.107-0.746-0.48-1.493-1.066-2.079l-1.919-1.919c-1.119-1.119-1.652-1.652-3.092-2.292-3.092-1.439-6.237-1.173-10.821 0.906-0.267 0.107-0.373 0.32-0.32 0.586s0.267 0.426 0.533 0.426h0.693c2.345 0 3.572 0 5.704 2.132 0.934 0.934 0.961 2.365 0.124 3.419-0.113 0.017-0.199 0.068-0.284 0.153l-2.368 2.643-1.79-1.79c-1.967-1.967-3.351-3.829-4.416-5.901-0.056-1.049-0.477-2.030-1.234-2.788-0.906-0.906-2.186-1.333-3.465-1.226-0.16 0.053-0.32 0.16-0.373 0.267-0.107 0.16-0.107 0.373 0 0.533l1.493 2.665c-0.32 0.693-1.066 1.119-1.812 1.066l-1.546-2.559c-0.053-0.16-0.267-0.267-0.426-0.267-0.16-0.053-0.32 0.053-0.426 0.213-1.279 1.919-0.8 4.478 1.119 5.81 0.661 0.472 1.406 0.735 2.16 0.789 0.008 0.004 0.016 0.008 0.025 0.011 2.079 1.066 3.945 2.452 5.917 4.424l1.95 1.905-11.331 12.648c-0.426 0.426-0.64 1.013-0.64 1.599s0.213 1.119 0.64 1.546l0.746 0.746c0.426 0.373 0.96 0.586 1.493 0.586s1.119-0.213 1.546-0.64l11.319-12.669 3.287 3.287c1.118 1.118 2.556 3.088 4.472 5.962 0.069 1.026 0.489 1.984 1.231 2.727 0.8 0.8 1.866 1.226 2.985 1.226 0.16 0 0.32 0 0.426 0 0.16 0 0.32-0.107 0.426-0.267s0.107-0.373 0-0.533l-1.546-2.612c0.373-0.693 1.066-1.119 1.866-1.066l1.493 2.559c0.053 0.16 0.267 0.267 0.426 0.267 0.213-0.053 0.373-0.107 0.48-0.267 1.279-1.919 0.746-4.478-1.119-5.81zM18.022 4.654c-1.706-1.652-2.985-2.186-4.424-2.345 3.038-0.96 5.277-0.906 7.516 0.107 1.279 0.533 1.706 0.96 2.825 2.079l1.919 1.919c0.426 0.426 0.693 0.96 0.746 1.493 0.053 0.267 0.053 0.48 0.053 0.64 0 0.586 0.053 1.013 0.693 1.652 0.213 0.213 0.533 0.32 0.8 0.32 0.32 0 0.586-0.107 0.746-0.32l1.866 1.866c0.107 0.107 0.16 0.213 0.16 0.373s-0.053 0.267-0.16 0.373l-3.785 3.785c-0.213 0.213-0.533 0.213-0.746 0l-1.866-1.866c0.213-0.16 0.32-0.426 0.267-0.746 0-0.267-0.107-0.586-0.32-0.8-0.64-0.64-1.066-0.693-1.652-0.693-0.16 0-0.373 0-0.64-0.053-0.586-0.053-1.066-0.32-1.493-0.746l-2.292-2.292c1.173-1.439 1.066-3.465-0.213-4.744zM1.284 3.374l1.119 1.919c0.107 0.16 0.267 0.267 0.426 0.267h0.267c1.226 0.053 2.345-0.586 2.879-1.652l0.107-0.267c0.107-0.16 0.107-0.32 0-0.48l-1.173-2.026c0.64 0.107 1.226 0.426 1.706 0.906 0.55 0.595 0.902 1.348 0.922 2.157-0.010 0.041-0.016 0.085-0.016 0.135 0 0.247-0.030 0.488-0.085 0.72-0.201 0.772-0.683 1.445-1.354 1.892-1.066 0.693-2.505 0.693-3.572-0.053-1.119-0.8-1.599-2.239-1.226-3.518zM10.772 12.223c-1.599-1.652-3.198-2.932-4.904-3.945 0.267-0.107 0.586-0.267 0.853-0.426 0.8-0.533 1.333-1.226 1.652-2.079 1.013 1.706 2.292 3.305 3.891 4.904l1.831 1.831-1.436 1.603-1.888-1.888zM3.683 30.561c-0.426 0.426-1.119 0.48-1.546 0.053l-0.746-0.693c-0.213-0.213-0.32-0.48-0.32-0.746 0-0.32 0.107-0.586 0.373-0.853l0.302-0.338 0.764 0.764c0.107 0.107 0.213 0.16 0.373 0.16s0.267-0.053 0.373-0.16c0.213-0.213 0.213-0.533 0-0.746l-0.806-0.806 0.704-0.788 0.848 0.848c0.107 0.107 0.213 0.16 0.373 0.16s0.267-0.053 0.373-0.16c0.213-0.213 0.213-0.533 0-0.746l-0.89-0.89 13.712-15.341 2.239 2.239-2.2 2.461c-0.063 0.027-0.118 0.067-0.174 0.123l-2.132 2.399c-0.061 0.061-0.104 0.131-0.13 0.204l-11.491 12.856zM16.477 17.874l1.459-1.633 3.445 3.445c0.96 1.013 2.612 2.292 5.011 3.891-0.32 0.107-0.64 0.267-0.96 0.48-0.661 0.413-1.13 0.987-1.456 1.622-0.005 0.009-0.009 0.018-0.014 0.027-0.019 0.038-0.038 0.077-0.057 0.115-0.026 0.055-0.051 0.11-0.075 0.166-0.016 0.038-0.033 0.076-0.048 0.114-0.002 0.006-0.004 0.011-0.006 0.017-0.017 0.042-0.033 0.083-0.049 0.125-0.303-0.444-0.594-0.863-0.874-1.258l0.714-0.714c0.213-0.213 0.213-0.533 0-0.746s-0.533-0.213-0.746 0l-0.594 0.594c-0.221-0.301-0.435-0.584-0.642-0.851l0.49-0.49c0.213-0.213 0.213-0.533 0-0.746s-0.533-0.213-0.746 0l-0.407 0.407c-0.392-0.472-0.753-0.874-1.086-1.207l-3.358-3.358zM30.762 28.535l-1.119-1.919c-0.107-0.16-0.267-0.267-0.426-0.267h-0.267c-1.226-0.107-2.346 0.586-2.879 1.652l-0.107 0.267c-0.107 0.16-0.107 0.32 0 0.48l1.173 2.026c-0.64-0.107-1.226-0.426-1.706-0.906-0.539-0.584-0.888-1.32-0.92-2.111 0.009-0.039 0.014-0.081 0.014-0.128 0-0.675 0.214-1.308 0.588-1.843 0.23-0.319 0.517-0.599 0.851-0.822 0.533-0.373 1.119-0.533 1.759-0.533s1.279 0.213 1.812 0.586c1.12 0.8 1.599 2.239 1.226 3.518z"></path>
</svg>
