<!-- Generated by IcoMoon.io -->
<svg version="1.1" xmlns="http://www.w3.org/2000/svg" width="32" height="32" viewBox="0 0 32 32">
<path fill="#777" d="M6.465 31.244c-0.119 0-0.237-0.037-0.337-0.109-0.176-0.128-0.265-0.345-0.227-0.56l1.771-10.32-7.498-7.308c-0.156-0.152-0.212-0.38-0.145-0.587s0.247-0.359 0.463-0.39l10.362-1.506 4.634-9.39c0.096-0.196 0.296-0.32 0.513-0.32v0c0.218 0 0.418 0.124 0.513 0.32l4.634 9.39 10.362 1.506c0.216 0.031 0.395 0.182 0.463 0.39 0.067 0.207 0.011 0.435-0.145 0.587l-7.498 7.309 1.77 10.32c0.037 0.215-0.052 0.432-0.227 0.56-0.176 0.129-0.411 0.146-0.604 0.044l-9.268-4.872-9.269 4.872c-0.084 0.044-0.175 0.065-0.266 0.065zM1.804 12.936l6.883 6.709c0.135 0.131 0.196 0.321 0.164 0.507l-1.625 9.473 8.508-4.472c0.167-0.088 0.365-0.088 0.533 0l8.507 4.472-1.624-9.473c-0.032-0.186 0.030-0.375 0.164-0.507l6.883-6.709-9.511-1.382c-0.187-0.027-0.348-0.144-0.431-0.313l-4.254-8.618-4.254 8.619c-0.084 0.169-0.245 0.286-0.431 0.313l-9.511 1.382z"></path>
</svg>
