<!-- Generated by IcoMoon.io -->
<svg version="1.1" xmlns="http://www.w3.org/2000/svg" width="32" height="32" viewBox="0 0 32 32">
<path fill="#777" d="M13.090 3.544c0.356 0.118 0.693 0.268 1.002 0.447 0.081 0.047 0.17 0.070 0.258 0.070 0.178 0 0.351-0.092 0.446-0.257 0.143-0.246 0.059-0.562-0.187-0.704-0.37-0.215-0.773-0.394-1.197-0.534-0.27-0.089-0.562 0.058-0.651 0.328s0.058 0.562 0.328 0.651zM16.584 9.062c0 0.769-0.089 1.555-0.265 2.336-0.063 0.278 0.112 0.554 0.389 0.616 0.038 0.009 0.076 0.013 0.114 0.013 0.236 0 0.448-0.163 0.502-0.402 0.193-0.855 0.291-1.717 0.291-2.562 0-1.8-0.439-3.299-1.306-4.456-0.171-0.228-0.494-0.274-0.722-0.104s-0.274 0.494-0.104 0.721c0.73 0.975 1.1 2.266 1.1 3.838zM9.141 16.932c-1.281-0.874-2.426-2.549-3.064-4.482-0.089-0.27-0.381-0.417-0.651-0.328s-0.417 0.381-0.328 0.651c0.717 2.172 1.979 3.998 3.462 5.010 0.089 0.061 0.19 0.090 0.29 0.090 0.165 0 0.326-0.079 0.426-0.225 0.16-0.235 0.1-0.556-0.135-0.716zM27.139 8.417c-1.569-1.528-3.768-2.37-6.191-2.37-0.511 0-1.016 0.038-1.508 0.112-0.409-1.485-1.149-2.768-2.197-3.789-1.569-1.528-3.768-2.37-6.191-2.37s-4.622 0.842-6.191 2.37c-1.682 1.638-2.571 3.952-2.571 6.692 0 2.79 0.914 5.694 2.509 7.968 1.359 1.938 3.036 3.186 4.827 3.62-0.12 0.226-0.189 0.483-0.189 0.757v1.1c0 0.285 0.231 0.515 0.515 0.515h0.554c-0.042 0.317-0.123 0.532-0.211 0.769-0.144 0.384-0.308 0.82-0.308 1.646s0.163 1.263 0.308 1.647c0.13 0.346 0.242 0.646 0.242 1.285s-0.112 0.939-0.242 1.285c-0.144 0.385-0.308 0.821-0.308 1.647 0 0.285 0.231 0.515 0.515 0.515s0.515-0.231 0.515-0.515c0-0.64 0.112-0.939 0.242-1.285 0.144-0.385 0.308-0.821 0.308-1.647s-0.164-1.263-0.308-1.647c-0.13-0.346-0.242-0.646-0.242-1.285s0.112-0.938 0.242-1.284c0.111-0.295 0.233-0.622 0.283-1.131h0.609c0.285 0 0.515-0.231 0.515-0.515v-1.1c0-0.273-0.069-0.531-0.189-0.757 0.26-0.063 0.517-0.143 0.772-0.24 1.354 3.33 3.702 5.648 6.274 6.284-0.122 0.227-0.191 0.486-0.191 0.761v1.1c0 0.285 0.231 0.515 0.515 0.515h0.554c-0.042 0.317-0.123 0.532-0.211 0.769-0.144 0.384-0.308 0.82-0.308 1.646 0 0.285 0.231 0.515 0.515 0.515s0.515-0.231 0.515-0.515c0-0.639 0.112-0.938 0.242-1.284 0.111-0.295 0.233-0.622 0.283-1.131h0.609c0.285 0 0.515-0.231 0.515-0.515v-1.1c0-0.273-0.069-0.531-0.189-0.757 1.791-0.434 3.468-1.682 4.827-3.62 1.594-2.274 2.509-5.178 2.509-7.968 0-2.74-0.889-5.054-2.571-6.692zM5.643 16.438c-1.476-2.104-2.322-4.793-2.322-7.376 0-2.455 0.781-4.514 2.26-5.954 1.376-1.34 3.319-2.078 5.472-2.078s4.096 0.738 5.472 2.078c1.478 1.44 2.26 3.498 2.26 5.954 0 2.583-0.846 5.272-2.322 7.376-1.517 2.163-3.438 3.354-5.409 3.354s-3.893-1.191-5.409-3.354zM11.636 21.407v0.584h-1.168v-0.584c0-0.322 0.262-0.584 0.584-0.584s0.584 0.262 0.584 0.584zM21.532 27.454v0.584h-1.168v-0.584c0-0.322 0.262-0.584 0.584-0.584s0.584 0.262 0.584 0.584zM26.357 22.486c-1.517 2.163-3.438 3.354-5.409 3.354-1.39 0-2.78-0.606-4.022-1.751-1.116-1.030-2.082-2.483-2.741-4.117 0.336-0.188 0.664-0.407 0.984-0.655 0.737 1.953 1.917 3.581 3.287 4.515 0.089 0.061 0.19 0.090 0.29 0.090 0.165 0 0.326-0.079 0.426-0.225 0.16-0.235 0.1-0.556-0.135-0.716-1.262-0.861-2.392-2.5-3.035-4.396 0.459-0.454 0.896-0.972 1.303-1.553 1.594-2.274 2.509-5.178 2.509-7.968 0-0.657-0.052-1.289-0.153-1.894 0.419-0.060 0.85-0.090 1.287-0.090 2.153 0 4.096 0.738 5.472 2.078 1.478 1.44 2.26 3.498 2.26 5.954 0 2.583-0.846 5.272-2.322 7.376zM26.205 10.653c-0.171-0.228-0.494-0.274-0.721-0.104s-0.274 0.494-0.104 0.722c0.73 0.975 1.1 2.266 1.1 3.838 0 0.769-0.089 1.555-0.265 2.336-0.063 0.278 0.112 0.554 0.389 0.616 0.038 0.009 0.076 0.013 0.114 0.013 0.236 0 0.448-0.163 0.502-0.402 0.193-0.855 0.291-1.717 0.291-2.562-0-1.8-0.439-3.299-1.306-4.456zM24.505 9.147c-0.37-0.215-0.773-0.394-1.197-0.534-0.27-0.089-0.562 0.058-0.651 0.328s0.058 0.562 0.328 0.651c0.356 0.117 0.693 0.268 1.002 0.447 0.081 0.047 0.17 0.070 0.258 0.070 0.178 0 0.351-0.092 0.446-0.257 0.143-0.246 0.059-0.562-0.187-0.704z"></path>
</svg>
