<!-- Generated by IcoMoon.io -->
<svg version="1.1" xmlns="http://www.w3.org/2000/svg" width="32" height="32" viewBox="0 0 32 32">
<path fill="#777" d="M5.494 20.519c-1.65 0-2.992 1.342-2.992 2.992s1.342 2.992 2.992 2.992c1.65 0 2.992-1.342 2.992-2.992s-1.342-2.992-2.992-2.992zM5.494 25.522c-1.109 0-2.011-0.902-2.011-2.011s0.902-2.011 2.011-2.011c1.109 0 2.011 0.902 2.011 2.011s-0.902 2.011-2.011 2.011zM5.987 23.018v-0.523h-0.982v0.523h-0.524v0.982h0.524v0.523h0.982v-0.523h0.524v-0.982zM19.009 25.505v-0.523h-0.982v0.523h-0.523v0.982h0.523v0.523h0.982v-0.523h0.523v-0.982zM11.484 25.046h3.534v0.982h-3.534v-0.982zM30.984 21.020v-12.005h-6.488v-5.506h-2.482v7.992h-1.357c-0.452-2.414-1.383-4.715-2.757-6.783l-0.146-0.219h-12.289v0.982h11.761c1.81 2.814 2.766 6.069 2.766 9.434v3.13h-7.102c0.065-0.167 0.1-0.348 0.1-0.537 0-0.822-0.669-1.491-1.491-1.491h-1.010v-3.512c0-0.822-0.669-1.491-1.491-1.491s-1.491 0.669-1.491 1.491v5.54h-0.535v-12.040h-0.981v7.983h-2.029v-1.963h-1.963v0.982h0.982v0.982h-1.505v5.786c-0.913 0.981-1.472 2.295-1.472 3.738 0 3.029 2.465 5.494 5.494 5.494 1.182 0 2.277-0.377 3.175-1.014h7.591c0.549 0.621 1.35 1.014 2.242 1.014 1.65 0 2.992-1.342 2.992-2.992 0-0.625-0.193-1.205-0.522-1.686v-3.338h-10.6c-0.082-0.157-0.171-0.31-0.267-0.458h10.867v-0.982h-11.678c-0.198-0.19-0.409-0.365-0.634-0.523h12.312v-4.112c0-0.135-0.002-0.269-0.005-0.403h1.046v8.991h2.838l-1.549 1.544h-1.283v0.982h1.688l2.534-2.526h5.759v-2.482h-1.016zM2.454 14.969h3.533v3.072c-0.163-0.015-0.327-0.023-0.494-0.023-1.123 0-2.169 0.34-3.040 0.921v-3.969zM18.502 28.024c-1.109 0-2.011-0.902-2.011-2.011s0.902-2.011 2.011-2.011c1.109 0 2.011 0.902 2.011 2.011s-0.902 2.011-2.011 2.011zM10.988 23.512c0-0.535-0.078-1.051-0.221-1.541h9.225v1.448c-0.439-0.253-0.947-0.398-1.489-0.398-1.65 0-2.992 1.342-2.992 2.992 0 0.349 0.061 0.684 0.171 0.996h-5.954c0.787-0.951 1.261-2.17 1.261-3.498zM10.006 23.512c0 2.488-2.024 4.512-4.512 4.512s-4.512-2.024-4.512-4.512 2.024-4.512 4.512-4.512 4.512 2.024 4.512 4.512zM11.497 18.018h-3.011v-5.513c0-0.281 0.229-0.51 0.51-0.51s0.51 0.229 0.51 0.51v4.493h1.992c0.281 0 0.51 0.229 0.51 0.51s-0.229 0.51-0.51 0.51zM22.013 13.53h-1.093c-0.026-0.351-0.062-0.7-0.108-1.047h1.201v1.047zM26.992 9.996h0.523v0.524h-0.523v-0.524zM24.506 9.996h1.505v1.505h2.487v-1.505h1.505v5.039h-5.497v-5.039zM27.516 16.016v0.523h-0.523v-0.523h0.523zM24.506 16.016h1.505v1.505h2.487v-1.505h1.505v2.002h-2.569v2.482h2.569v0.489h-5.497v-4.973zM29.934 18.999v0.519h-1.52v-0.519h1.52zM31.018 22.52h-8.024v-18.030h0.519v17.51h7.504v0.519zM16.981 16.54v-1.735l-0.789-0.796 0.717-0.717-0.694-0.694-2.123 2.123 0.694 0.694 0.712-0.712 0.502 0.506v2.313h3.534v-0.982zM2.977 15.492h0.982v1.505h-0.982v-1.505zM4.482 15.492h0.982v1.505h-0.982v-1.505zM0.491 12.024h0.982v0.982h-0.982v-0.982zM25.029 13.529h1.963v0.982h-1.963v-0.982zM5.464 2.995h12.564v0.982h-12.564v-0.982z"></path>
</svg>
