<!-- Generated by IcoMoon.io -->
<svg version="1.1" xmlns="http://www.w3.org/2000/svg" width="32" height="32" viewBox="0 0 32 32">
<path fill="#777" d="M29.372 21.144v0l-2.292 0.764c-0.238-0.715-0.797-1.278-1.51-1.523-0.207-1.362-1.416-2.343-2.791-2.264-0.89-1.429-2.498-2.247-4.177-2.126-0.182-0.711-0.716-1.279-1.414-1.505 0.499-1.622 1.389-3.097 2.592-4.294 0.064 0.074 0.125 0.151 0.193 0.221 1.074 1.096 2.541 1.717 4.075 1.726 0.108 0 0.217-0.003 0.325-0.010 1.383-0.063 2.666-0.734 3.506-1.834 2.322-3.054 4.030-9.192 4.102-9.452 0.041-0.149 0.016-0.308-0.070-0.437s-0.222-0.214-0.375-0.234c-0.314-0.042-7.744-0.974-11.458 2.163-0.262 0.221-0.5 0.47-0.71 0.742-1.462-0.403-2.988-0.527-4.496-0.364-0.157 0.018-0.299 0.105-0.385 0.238s-0.11 0.297-0.064 0.449c0.036 0.116 0.883 2.847 2.049 4.214 0.517 0.586 1.265 0.915 2.047 0.898 0.076 0 0.154-0.006 0.231-0.012 0.11 0.276 0.241 0.544 0.391 0.801-1.451 1.408-2.5 3.177-3.040 5.126-0.505 0.107-0.954 0.392-1.266 0.803-1.468-0.648-3.185-0.283-4.262 0.907-0.314-0.104-0.642-0.157-0.973-0.158-1.56 0.003-2.891 1.129-3.152 2.667h-0.988c-0.445-0.666-1.193-1.066-1.994-1.067h-1.067c-1.325 0.001-2.399 1.075-2.4 2.4v9.6c0.001 1.325 1.075 2.399 2.4 2.4h1.067c0.543-0.002 1.069-0.191 1.49-0.533h13.87c0.783 0 1.55-0.215 2.218-0.622l9.997-6.085c0.867-0.529 1.199-1.624 0.771-2.545s-1.478-1.375-2.441-1.054zM19.388 6.059c0.032-1.118 0.532-2.171 1.378-2.904 2.042-1.724 5.511-2.064 7.929-2.064 0.865 0 1.596 0.044 2.078 0.083-0.493 1.631-1.956 6.128-3.744 8.481-0.654 0.851-1.65 1.369-2.722 1.415-1.335 0.071-2.637-0.438-3.57-1.395-0.068-0.070-0.129-0.146-0.192-0.22 1.117-1.013 2.357-1.884 3.689-2.591 0.265-0.13 0.374-0.449 0.245-0.714s-0.449-0.374-0.714-0.245c-1.382 0.718-2.668 1.605-3.829 2.642-0.397-0.767-0.586-1.625-0.548-2.488zM18.323 6.006c-0.021 0.483 0.019 0.967 0.117 1.441-0.44-0.003-0.859-0.192-1.154-0.519-0.703-0.976-1.251-2.054-1.625-3.197 1.056-0.061 2.115 0.038 3.142 0.294-0.285 0.624-0.448 1.296-0.479 1.982zM4.8 29.584c-0.001 0.736-0.597 1.332-1.333 1.333h-1.067c-0.736-0.001-1.333-0.597-1.333-1.333v-9.6c0.001-0.736 0.597-1.332 1.333-1.333h1.067c0.736 0.001 1.333 0.597 1.333 1.333v9.6zM9.6 17.050c0.316 0.002 0.627 0.075 0.91 0.213 0.233 0.11 0.511 0.039 0.662-0.169 0.821-1.147 2.395-1.452 3.585-0.695 0.135 0.086 0.302 0.106 0.454 0.056s0.273-0.167 0.33-0.316c0.15-0.398 0.525-0.667 0.95-0.682 0.014 0.001 0.029 0.004 0.043 0.004s0.025-0.006 0.039-0.007c0.563 0.017 1.014 0.471 1.029 1.034-0.002 0.015-0.008 0.065-0.009 0.080-0.009 0.165 0.059 0.326 0.184 0.434s0.294 0.152 0.456 0.119c0.231-0.047 0.466-0.071 0.701-0.071 1.302-0.002 2.495 0.729 3.084 1.89 0.11 0.215 0.35 0.329 0.585 0.278 0.467-0.096 0.953 0.021 1.326 0.319s0.594 0.746 0.604 1.223c-0.001 0.018-0.002 0.036-0.002 0.050 0 0.265 0.195 0.49 0.458 0.528 0.502 0.074 0.919 0.426 1.076 0.909l-6.565 2.188c-0.163 0.054-0.334 0.082-0.506 0.082h-0.306c0.253-0.695 0.18-1.466-0.199-2.101l-0.047-0.078c-0.58-0.962-1.62-1.551-2.744-1.554h-2.79c-0.984-0.001-1.939-0.336-2.708-0.95-0.771-0.614-1.696-1.005-2.673-1.133 0.224-0.965 1.083-1.649 2.073-1.651zM30.916 23.215c-0.048 0.257-0.204 0.482-0.429 0.617l-9.997 6.085c-0.501 0.305-1.077 0.466-1.664 0.466h-13.107c0.095-0.256 0.145-0.527 0.147-0.8v-9.6c-0.004-0.089-0.013-0.178-0.027-0.267h0.986c0.984 0.001 1.939 0.336 2.708 0.95 0.958 0.765 2.148 1.182 3.374 1.184h2.79c0.749 0.002 1.443 0.395 1.829 1.036l0.047 0.078c0.291 0.485 0.26 1.099-0.079 1.552h-3.242c-1.053-0.001-2.083 0.311-2.958 0.896l-0.391 0.26c-0.159 0.105-0.251 0.288-0.239 0.479s0.125 0.36 0.296 0.445c0.171 0.084 0.375 0.071 0.534-0.036l0.391-0.26c0.7-0.468 1.524-0.718 2.367-0.717h4.741c0.287 0 0.571-0.046 0.843-0.137l6.805-2.268c0.009 0 0.016 0.005 0.025 0.005 0.12-0.002 0.235-0.045 0.326-0.122l2.716-0.905c0.38-0.127 0.799 0.005 1.038 0.326 0.158 0.209 0.22 0.476 0.169 0.733zM12.187 19.173c0.289 0.059 0.57-0.128 0.629-0.416 0.077-0.372 0.404-0.639 0.784-0.64 0.173-0.001 0.341 0.055 0.48 0.16 0.236 0.176 0.569 0.128 0.745-0.107s0.13-0.568-0.104-0.745c-0.323-0.244-0.716-0.375-1.12-0.374-0.887 0.002-1.65 0.625-1.829 1.494-0.059 0.289 0.128 0.57 0.416 0.629zM17.895 19.349c0.171 0.085 0.374 0.072 0.533-0.034v0c0.317-0.208 0.737-0.166 1.006 0.102 0.123 0.122 0.202 0.281 0.226 0.452 0.037 0.263 0.262 0.458 0.527 0.458 0.025-0 0.051-0.002 0.076-0.005 0.292-0.042 0.494-0.312 0.453-0.603-0.091-0.634-0.499-1.177-1.083-1.439s-1.261-0.207-1.795 0.146c-0.159 0.105-0.25 0.287-0.238 0.478s0.124 0.36 0.295 0.445z"></path>
</svg>
