<!-- Generated by IcoMoon.io -->
<svg version="1.1" xmlns="http://www.w3.org/2000/svg" width="32" height="32" viewBox="0 0 32 32">
<path fill="#777" d="M6.865 31.013l-0.941-1.325c-0.2-0.282-0.59-0.348-0.871-0.148s-0.348 0.59-0.148 0.871l0.941 1.325c0.122 0.172 0.314 0.263 0.51 0.263 0.125 0 0.251-0.038 0.361-0.115 0.281-0.2 0.348-0.59 0.148-0.871zM14.075 31.247l-1.024-4.88c-0.498-2.373-1.88-4.425-3.893-5.778l-2.186-1.47c-0.877-0.589-2.055-0.463-2.788 0.285v-7.531c0-0.989-0.674-1.828-1.639-2.043-0.623-0.138-1.265 0.011-1.763 0.411s-0.783 0.994-0.783 1.632v9.691c0 1.27 0.389 2.488 1.123 3.523l1.115 1.57c0.122 0.172 0.315 0.263 0.51 0.263 0.125 0 0.251-0.038 0.361-0.115 0.281-0.2 0.348-0.59 0.148-0.871l-1.115-1.57c-0.584-0.823-0.893-1.791-0.893-2.8v-9.691c0-0.257 0.115-0.496 0.315-0.657s0.459-0.221 0.71-0.165c0.388 0.086 0.66 0.424 0.66 0.822v7.688c0 1.088 0.4 2.125 1.126 2.932 0.031 0.037 0.063 0.074 0.097 0.11 0.415 0.44 0.903 0.958 1.363 1.447l0.643 0.685c0.002 0.002 0.004 0.004 0.006 0.006 0.55 0.585 0.956 1.018 0.965 1.027 0.236 0.252 0.632 0.264 0.883 0.028s0.264-0.632 0.028-0.883c-0.011-0.012-0.743-0.791-1.579-1.679l-1.433-1.525c-0.004-0.004-0.007-0.008-0.011-0.012-0.336-0.402-0.332-0.985 0.020-1.382 0.312-0.352 0.841-0.419 1.23-0.157l2.186 1.47c1.741 1.17 2.936 2.945 3.367 4.998l1.024 4.881c0.062 0.295 0.322 0.497 0.611 0.497 0.043 0 0.086-0.004 0.129-0.013 0.338-0.071 0.554-0.402 0.483-0.74zM4.631 27.866l-0.004-0.006c-0.201-0.281-0.591-0.346-0.872-0.146s-0.346 0.591-0.146 0.872l0.004 0.006c0.122 0.171 0.314 0.262 0.509 0.262 0.126 0 0.252-0.038 0.362-0.116 0.281-0.201 0.346-0.591 0.146-0.872zM31.217 10.239c-0.497-0.399-1.14-0.549-1.763-0.411-0.965 0.214-1.639 1.054-1.639 2.043v7.531c-0.733-0.747-1.911-0.874-2.788-0.285l-2.186 1.47c-2.012 1.353-3.395 3.405-3.893 5.778l-1.024 4.881c-0.071 0.338 0.145 0.669 0.483 0.74 0.043 0.009 0.087 0.013 0.129 0.013 0.29 0 0.549-0.202 0.611-0.497l1.024-4.881c0.431-2.053 1.626-3.828 3.367-4.998l2.186-1.47c0.39-0.262 0.919-0.195 1.23 0.157 0.352 0.397 0.356 0.979 0.022 1.381-0.004 0.004-0.008 0.009-0.012 0.013 0 0-3 3.192-3.012 3.204-0.236 0.252-0.224 0.647 0.028 0.883s0.647 0.224 0.883-0.028c0.009-0.009 2.562-2.724 2.977-3.164 0.034-0.036 0.066-0.073 0.097-0.11 0.726-0.807 1.126-1.844 1.126-2.932v-7.689c0-0.398 0.271-0.736 0.66-0.822 0.251-0.056 0.509 0.005 0.71 0.165s0.315 0.4 0.315 0.657v9.691c0 1.009-0.309 1.977-0.893 2.8l-4.722 6.652c-0.2 0.281-0.134 0.672 0.148 0.871 0.11 0.078 0.236 0.115 0.361 0.115 0.196 0 0.388-0.092 0.51-0.263l4.722-6.652c0.735-1.035 1.123-2.254 1.123-3.523v-9.691c-0-0.638-0.285-1.233-0.783-1.632zM23.916 11.979l-1.112-0.266v-0.199c0.723-0.506 1.197-1.345 1.197-2.292v-1.446c0-1.542-1.255-2.797-2.797-2.797-0.692 0-1.326 0.253-1.815 0.671-0.544-1.333-1.854-2.275-3.381-2.275-1.528 0-2.84 0.945-3.383 2.28-0.49-0.421-1.126-0.676-1.821-0.676-1.542 0-2.797 1.255-2.797 2.797v1.446c0 0.947 0.474 1.786 1.197 2.292v0.199l-1.112 0.266c-1.328 0.317-2.255 1.492-2.255 2.857v1.167c0 0.345 0.28 0.625 0.625 0.625h2.872c-0.004 0.076-0.008 0.152-0.008 0.229v2.247c0 0.345 0.28 0.625 0.625 0.625h3.757c0.345 0 0.625-0.28 0.625-0.625s-0.28-0.625-0.625-0.625h-0.646v-1.292c0-0.345-0.28-0.625-0.625-0.625s-0.625 0.28-0.625 0.625v1.292h-1.236v-1.622c0-1.205 0.819-2.244 1.991-2.524l1.715-0.411 1.148 2.611c0.1 0.227 0.324 0.373 0.572 0.373h0c0.248 0 0.472-0.146 0.572-0.373l1.147-2.607 1.71 0.408c1.173 0.28 1.993 1.319 1.993 2.525v1.621h-1.236v-1.292c0-0.345-0.28-0.625-0.625-0.625s-0.625 0.28-0.625 0.625v1.292h-0.708c-0.345 0-0.625 0.28-0.625 0.625s0.28 0.625 0.625 0.625h3.819c0.345 0 0.625-0.28 0.625-0.625v-2.246c0-0.077-0.003-0.154-0.008-0.231h2.88c0.345 0 0.625-0.28 0.625-0.625v-1.167c0-1.365-0.927-2.54-2.255-2.857zM21.203 6.229c0.819 0 1.491 0.639 1.544 1.445h-0.869c-0.73 0-1.449-0.176-2.096-0.511 0.238-0.549 0.785-0.934 1.421-0.934zM19.656 9.13c0.001-0.030 0.002-0.061 0.002-0.091v-0.557c0.701 0.29 1.456 0.442 2.22 0.442h0.872v0.298c0 0.853-0.694 1.547-1.547 1.547s-1.547-0.694-1.547-1.547v-0.091zM13.607 7.026v0c0-1.324 1.077-2.401 2.401-2.401 1.194 0 2.187 0.876 2.37 2.019l-1.052-0.618c-0.263-0.155-0.6-0.097-0.796 0.138-0.514 0.614-1.268 0.966-2.069 0.966h-0.854v-0.103zM10.804 6.229c0.636 0 1.183 0.385 1.421 0.934-0.646 0.335-1.365 0.511-2.096 0.511h-0.869c0.053-0.806 0.725-1.445 1.544-1.445zM9.257 8.924h0.872c0.765 0 1.52-0.152 2.222-0.443v0.74c0 0.853-0.694 1.547-1.547 1.547s-1.547-0.694-1.547-1.547v-0.298zM12.276 13.117c-1.23 0.295-2.196 1.152-2.656 2.261h-2.533v-0.542c0-0.784 0.533-1.459 1.295-1.641l1.592-0.38c0.281-0.067 0.48-0.319 0.48-0.608v-0.21c0.115 0.014 0.232 0.023 0.351 0.023s0.234-0.008 0.348-0.022v0.178c-0 0.009-0.001 0.019-0.001 0.028-0 0.205 0.101 0.406 0.286 0.526 0.070 0.045 0.145 0.075 0.222 0.089l0.932 0.223-0.316 0.076zM14.019 12.146c-0.161-0.071-0.328-0.127-0.5-0.169l-1.117-0.268v-0.195c0.201-0.141 0.384-0.307 0.542-0.495 0.279 0.43 0.646 0.798 1.075 1.078v0.048zM16.734 13.065l-0.731 1.663-0.733-1.668v-0.446c0.239 0.049 0.486 0.075 0.738 0.075 0.249 0 0.491-0.025 0.726-0.073v0.448zM16.008 11.44c-1.324 0-2.401-1.077-2.401-2.401v-0.66h0.854c0.991 0 1.933-0.369 2.656-1.026l1.289 0.757v1.020c-0.048 1.281-1.105 2.309-2.398 2.309zM17.984 12.149v-0.042c0.433-0.28 0.803-0.649 1.084-1.080 0.157 0.185 0.338 0.35 0.537 0.49v0.195l-1.117 0.268c-0.174 0.042-0.343 0.099-0.505 0.171zM24.921 15.378h-2.542c-0.46-1.109-1.427-1.966-2.658-2.26l-0.314-0.075 0.937-0.225c0.078-0.014 0.155-0.044 0.225-0.090 0.185-0.12 0.285-0.32 0.285-0.525 0-0.005-0-0.010-0-0.015v-0.192c0.114 0.014 0.23 0.022 0.348 0.022s0.236-0.008 0.351-0.023v0.21c0 0.289 0.198 0.541 0.48 0.608l1.592 0.38c0.763 0.182 1.295 0.857 1.295 1.641v0.542zM16.442 18.662c-0.117-0.116-0.277-0.183-0.442-0.183s-0.326 0.066-0.442 0.183c-0.117 0.117-0.183 0.277-0.183 0.442s0.066 0.325 0.183 0.442c0.116 0.116 0.277 0.183 0.442 0.183s0.325-0.067 0.442-0.183c0.116-0.117 0.183-0.277 0.183-0.442s-0.067-0.326-0.183-0.442zM15.999 0c-0.345 0-0.625 0.28-0.625 0.625v0.935c0 0.345 0.28 0.625 0.625 0.625s0.625-0.28 0.625-0.625v-0.935c0-0.345-0.28-0.625-0.625-0.625zM13.697 2.039l-0.656-0.655c-0.244-0.244-0.64-0.244-0.884 0s-0.244 0.64 0 0.884l0.656 0.655c0.122 0.122 0.282 0.183 0.442 0.183s0.32-0.061 0.442-0.183c0.244-0.244 0.244-0.64-0-0.884zM19.826 1.4c-0.244-0.244-0.64-0.244-0.884 0l-0.651 0.651c-0.244 0.244-0.244 0.64 0 0.884 0.122 0.122 0.282 0.183 0.442 0.183s0.32-0.061 0.442-0.183l0.651-0.651c0.244-0.244 0.244-0.64-0-0.884z"></path>
</svg>
